<svg width="96" height="96" viewBox="0 0 96 96" fill="none" xmlns="http://www.w3.org/2000/svg">
<path d="M45.7969 8.65625L13.7969 29.8594C12.6719 30.6094 12 31.8594 12 33.2031V76C12 80.4219 15.5781 84 20 84H76C80.4219 84 84 80.4219 84 76V33.2031C84 31.8594 83.3281 30.6094 82.2031 29.8594L50.2031 8.65625C48.875 7.78125 47.125 7.78125 45.7969 8.65625ZM60 56H52V64C52 66.2031 50.2031 68 48 68C45.7969 68 44 66.2031 44 64V56H36C33.7969 56 32 54.2031 32 52C32 49.7969 33.7969 48 36 48H44V40C44 37.7969 45.7969 36 48 36C50.2031 36 52 37.7969 52 40V48H60C62.2031 48 64 49.7969 64 52C64 54.2031 62.2031 56 60 56Z" fill="white"/>
</svg>
