<svg width="97" height="96" viewBox="0 0 97 96" fill="none" xmlns="http://www.w3.org/2000/svg">
<path d="M68.5 12C59.6562 12 52.5 19.1563 52.5 28C52.5 36.8438 59.6562 44 68.5 44C77.3438 44 84.5 36.8438 84.5 28C84.5 19.1563 77.3438 12 68.5 12ZM24.5 44C23.2656 44 22.0313 44.2031 20.8438 44.5781L4.5 48.4375V77.2344L20.5 72L53.125 83.4219C55.7344 84.3281 58.6094 84.1094 61.0469 82.8125L85.5625 69.6875C88.25 68.2656 89.3438 64.9688 88.0625 62.2188C86.7188 59.375 83.3438 58.125 80.4844 59.4375L56.8438 70.2812L55.3594 68.3281L56.5313 65.7031C58.3438 61.6563 56.5156 56.875 52.4375 55.1094L29.4219 45.0625C29.2813 45 29.1406 44.9375 29 44.875C27.5781 44.2969 26.0469 44 24.5 44Z" fill="white"/>
</svg>
