<svg width="97" height="96" viewBox="0 0 97 96" fill="none" xmlns="http://www.w3.org/2000/svg">
<path d="M77.3742 61L67.2961 59.8438C64.8586 59.5625 62.4524 60.4063 60.7336 62.125L53.343 69.5156C47.6555 66.6406 42.5149 62.8906 38.0617 58.4375C33.6086 53.9844 29.8586 48.8438 26.9836 43.1563L34.3742 35.7656C36.093 34.0469 36.9367 31.6406 36.6555 29.2031L35.4992 19.125C35.0149 15.0781 31.6242 12.0469 27.5461 12.0469H20.6242C16.093 12.0469 12.343 15.7969 12.6242 20.3125C13.6867 37.3906 21.0305 52.75 32.3899 64.1094C43.7492 75.4688 59.1086 82.8125 76.1867 83.875C80.7024 84.1562 84.4524 80.4062 84.4524 75.875V68.9531C84.4524 64.875 81.4211 61.4844 77.3742 61Z" fill="white"/>
</svg>
