<svg width="97" height="96" viewBox="0 0 97 96" fill="none" xmlns="http://www.w3.org/2000/svg">
<path d="M48.4992 8C48.4523 8 48.4055 8 48.3742 8C33.5461 8.04688 18.7492 13.2813 6.90545 23.7188C5.92107 24.6094 5.28045 25.7031 4.90545 26.875C4.59295 27.5 4.46795 28.1406 4.5617 28.75C4.46795 30.7813 5.20232 32.8438 6.73357 34.375L11.2492 38.9063C13.9367 41.5938 18.1554 41.8281 21.1086 39.5L28.4679 33.6563C28.9679 33.25 29.3898 32.7969 29.7648 32.2969C29.7961 32.2813 29.8586 32.25 29.8898 32.2188C31.0773 31.5938 31.8117 30.3594 31.8117 29.0156L31.8586 18C37.2804 16.2969 42.9055 15.4219 48.5305 15.4375C54.1398 15.4219 59.7336 16.2969 65.1398 17.9844L65.1867 29.0156C65.1867 30.3594 65.9211 31.5938 67.1086 32.2188C67.1711 32.2656 67.2648 32.3125 67.3273 32.3438C67.7023 32.8281 68.1086 33.2656 68.5929 33.6563L75.9523 39.5C78.9054 41.8281 83.1242 41.5938 85.8117 38.9063L90.3273 34.375C92.2179 32.5 92.8898 29.8281 92.3273 27.4063C92.2961 27.2969 92.2648 27.1875 92.2179 27.0625C91.8586 25.8281 91.2023 24.6563 90.1398 23.7188C78.2648 13.2344 63.4055 8 48.5305 8C48.5148 8 48.5148 8 48.4992 8ZM36.4992 32V40L19.4992 53.5938C17.6086 55.1094 16.4992 57.4063 16.4992 59.8438V76H12.4992V84H84.4992V76H80.4992V59.8438C80.4992 57.4063 79.3898 55.1094 77.4992 53.5938L60.4992 40V32H52.4992V40H44.4992V32H36.4992ZM36.4992 52C38.7023 52 40.4992 53.7969 40.4992 56C40.4992 58.2031 38.7023 60 36.4992 60C34.2961 60 32.4992 58.2031 32.4992 56C32.4992 53.7969 34.2961 52 36.4992 52ZM48.4992 52C50.7023 52 52.4992 53.7969 52.4992 56C52.4992 58.2031 50.7023 60 48.4992 60C46.2961 60 44.4992 58.2031 44.4992 56C44.4992 53.7969 46.2961 52 48.4992 52ZM60.4992 52C62.7023 52 64.4992 53.7969 64.4992 56C64.4992 58.2031 62.7023 60 60.4992 60C58.2961 60 56.4992 58.2031 56.4992 56C56.4992 53.7969 58.2961 52 60.4992 52ZM36.4992 64C38.7023 64 40.4992 65.7969 40.4992 68C40.4992 70.2031 38.7023 72 36.4992 72C34.2961 72 32.4992 70.2031 32.4992 68C32.4992 65.7969 34.2961 64 36.4992 64ZM48.4992 64C50.7023 64 52.4992 65.7969 52.4992 68C52.4992 70.2031 50.7023 72 48.4992 72C46.2961 72 44.4992 70.2031 44.4992 68C44.4992 65.7969 46.2961 64 48.4992 64ZM60.4992 64C62.7023 64 64.4992 65.7969 64.4992 68C64.4992 70.2031 62.7023 72 60.4992 72C58.2961 72 56.4992 70.2031 56.4992 68C56.4992 65.7969 58.2961 64 60.4992 64Z" fill="white"/>
</svg>
