<svg width="96" height="96" viewBox="0 0 96 96" fill="none" xmlns="http://www.w3.org/2000/svg">
<path d="M20 12C15.5781 12 12 15.5781 12 20V60C12 64.4219 15.5781 68 20 68H36V36C36 27.1563 43.1563 20 52 20C52 15.5781 48.4219 12 44 12H20ZM22 20H26C27.1094 20 28 20.8906 28 22V26C28 27.1094 27.1094 28 26 28H22C20.8906 28 20 27.1094 20 26V22C20 20.8906 20.8906 20 22 20ZM52 28C47.5781 28 44 31.5781 44 36V76C44 80.4219 47.5781 84 52 84H76C80.4219 84 84 80.4219 84 76V36C84 31.5781 80.4219 28 76 28H52ZM22 36H26C27.1094 36 28 36.8906 28 38V42C28 43.1094 27.1094 44 26 44H22C20.8906 44 20 43.1094 20 42V38C20 36.8906 20.8906 36 22 36ZM54 36H58C59.1094 36 60 36.8906 60 38V42C60 43.1094 59.1094 44 58 44H54C52.8906 44 52 43.1094 52 42V38C52 36.8906 52.8906 36 54 36ZM70 36H74C75.1094 36 76 36.8906 76 38V42C76 43.1094 75.1094 44 74 44H70C68.8906 44 68 43.1094 68 42V38C68 36.8906 68.8906 36 70 36ZM22 52H26C27.1094 52 28 52.8906 28 54V58C28 59.1094 27.1094 60 26 60H22C20.8906 60 20 59.1094 20 58V54C20 52.8906 20.8906 52 22 52ZM54 52H58C59.1094 52 60 52.8906 60 54V58C60 59.1094 59.1094 60 58 60H54C52.8906 60 52 59.1094 52 58V54C52 52.8906 52.8906 52 54 52ZM70 52H74C75.1094 52 76 52.8906 76 54V58C76 59.1094 75.1094 60 74 60H70C68.8906 60 68 59.1094 68 58V54C68 52.8906 68.8906 52 70 52ZM54 68H58C59.1094 68 60 68.8906 60 70V74C60 75.1094 59.1094 76 58 76H54C52.8906 76 52 75.1094 52 74V70C52 68.8906 52.8906 68 54 68ZM70 68H74C75.1094 68 76 68.8906 76 70V74C76 75.1094 75.1094 76 74 76H70C68.8906 76 68 75.1094 68 74V70C68 68.8906 68.8906 68 70 68Z" fill="white"/>
</svg>
