<svg width="51" height="51" viewBox="0 0 51 51" fill="none" xmlns="http://www.w3.org/2000/svg">
<path d="M25.4996 2.85938C18.5985 2.85938 12.9996 8.45833 12.9996 15.3594C12.9996 21.2757 18.4764 29.4056 22.1792 34.2233C23.8638 36.4124 27.1353 36.4124 28.8199 34.2233C32.5227 29.4056 37.9996 21.2757 37.9996 15.3594C37.9996 8.45833 32.4006 2.85938 25.4996 2.85938ZM25.4996 10.8997C27.9654 10.8997 29.9592 12.8936 29.9592 15.3594C29.9592 17.8252 27.9654 19.819 25.4996 19.819C23.0337 19.819 21.0399 17.8252 21.0399 15.3594C21.0399 12.8936 23.0337 10.8997 25.4996 10.8997ZM13.3251 32.026C11.6161 32.026 10.0861 33.0677 9.45138 34.6465L6.95301 40.8965C5.86251 43.6309 7.8726 46.6094 10.8186 46.6094H40.1805C43.1265 46.6094 45.1366 43.6309 44.0461 40.8965L41.5477 34.6465C40.913 33.0677 39.383 32.026 37.674 32.026H35.9162C34.7688 32.026 33.8329 32.9619 33.8329 34.1094C33.8329 35.2568 34.7688 36.1927 35.9162 36.1927H37.6822L39.6109 41.0104C39.8876 41.7022 39.383 42.4427 38.6425 42.4427H12.3566C11.6161 42.4427 11.1197 41.7022 11.3882 41.0104L13.3169 36.1927H15.0829C16.2303 36.1927 17.1662 35.2568 17.1662 34.1094C17.1662 32.9619 16.2303 32.026 15.0829 32.026H13.3251Z" fill="#244E9C"/>
</svg>
