<svg width="51" height="50" viewBox="0 0 51 50" fill="none" xmlns="http://www.w3.org/2000/svg">
<path d="M25.5003 4.16602C14.0176 4.16602 4.66699 13.5166 4.66699 24.9993C4.66699 36.4821 14.0176 45.8327 25.5003 45.8327H33.8337C34.5824 45.8408 35.2822 45.4502 35.6647 44.7992C36.0391 44.1481 36.0391 43.3506 35.6647 42.6995C35.2822 42.0485 34.5824 41.6579 33.8337 41.666H25.5003C16.2718 41.666 8.83366 34.2279 8.83366 24.9993C8.83366 15.7708 16.2718 8.33268 25.5003 8.33268C34.7288 8.33268 42.167 15.7708 42.167 24.9993V28.1243C42.167 29.874 40.7917 31.2493 39.042 31.2493C37.2923 31.2493 35.917 29.874 35.917 28.1243V24.9993C35.917 24.918 35.917 24.8447 35.9089 24.7715C35.7786 19.1481 31.1481 14.5827 25.5003 14.5827C19.7712 14.5827 15.0837 19.2702 15.0837 24.9993C15.0837 30.7285 19.7712 35.416 25.5003 35.416C28.4463 35.416 31.0993 34.1628 32.9954 32.1852C34.3138 34.1302 36.5355 35.416 39.042 35.416C43.0459 35.416 46.3337 32.1283 46.3337 28.1243V24.9993C46.3337 13.5166 36.9831 4.16602 25.5003 4.16602ZM25.5003 18.7493C28.9753 18.7493 31.7503 21.5244 31.7503 24.9993C31.7503 28.4743 28.9753 31.2493 25.5003 31.2493C22.0254 31.2493 19.2503 28.4743 19.2503 24.9993C19.2503 21.5244 22.0254 18.7493 25.5003 18.7493Z" fill="#244E9C"/>
</svg>
