<svg width="51" height="50" viewBox="0 0 51 50" fill="none" xmlns="http://www.w3.org/2000/svg">
<path d="M25.5003 4.16602C13.9932 4.16602 4.66699 13.4922 4.66699 24.9994C4.66699 36.5065 13.9932 45.8327 25.5003 45.8327C37.0075 45.8327 46.3337 36.5065 46.3337 24.9994C46.3337 13.4922 37.0075 4.16602 25.5003 4.16602ZM30.8877 33.3327L24.0273 26.4723C23.6367 26.0817 23.417 25.5527 23.417 24.9994V14.5827C23.417 13.4352 24.3529 12.4993 25.5003 12.4993C26.6478 12.4993 27.5837 13.4352 27.5837 14.5827V24.1367L33.8337 30.3867C34.6475 31.2005 34.6475 32.5189 33.8337 33.3327C33.0199 34.1465 31.7015 34.1465 30.8877 33.3327Z" fill="#244E9C"/>
</svg>
