<svg width="51" height="50" viewBox="0 0 51 50" fill="none" xmlns="http://www.w3.org/2000/svg">
<path d="M34.8753 2.08398H16.1253C13.2526 2.08398 10.917 4.4196 10.917 7.29232V42.709C10.917 45.5817 13.2526 47.9173 16.1253 47.9173H34.8753C37.748 47.9173 40.0837 45.5817 40.0837 42.709V7.29232C40.0837 4.4196 37.748 2.08398 34.8753 2.08398ZM25.5003 44.0111C24.2064 44.0111 23.1566 42.9613 23.1566 41.6673C23.1566 40.3734 24.2064 39.3236 25.5003 39.3236C26.7943 39.3236 27.8441 40.3734 27.8441 41.6673C27.8441 42.9613 26.7943 44.0111 25.5003 44.0111ZM33.8337 37.5006H17.167C16.0195 37.5006 15.0837 36.5648 15.0837 35.4173V10.4173C15.0837 9.26986 16.0195 8.33398 17.167 8.33398H33.8337C34.9811 8.33398 35.917 9.26986 35.917 10.4173V35.4173C35.917 36.5648 34.9811 37.5006 33.8337 37.5006Z" fill="#244E9C"/>
</svg>
