<svg width="33" height="32" viewBox="0 0 33 32" fill="none" xmlns="http://www.w3.org/2000/svg">
<path d="M8.16667 4C6.15348 4 4.5 5.65348 4.5 7.66667V24.3333C4.5 26.3465 6.15348 28 8.16667 28H24.8333C26.8465 28 28.5 26.3465 28.5 24.3333V7.66667C28.5 5.65348 26.8465 4 24.8333 4H8.16667ZM8.16667 6H24.8333C25.7655 6 26.5 6.73452 26.5 7.66667V24.3333C26.5 25.2655 25.7655 26 24.8333 26H20.5V19.3333H22.9167C23.2527 19.3333 23.5368 19.082 23.5781 18.7487L23.8281 16.7487C23.8521 16.5594 23.792 16.3693 23.6654 16.2253C23.5394 16.0819 23.358 16 23.1667 16H20.5V13.6667C20.5 12.9313 21.098 12.3333 21.8333 12.3333H23.1667C23.5347 12.3333 23.8333 12.0353 23.8333 11.6667V9.41667C23.8333 9.07133 23.5699 8.78327 23.2266 8.7526C23.1872 8.74927 22.2467 8.66667 21.056 8.66667C18.118 8.66667 16.5 10.4108 16.5 13.5781V16H13.8333C13.4653 16 13.1667 16.298 13.1667 16.6667V18.6667C13.1667 19.0353 13.4653 19.3333 13.8333 19.3333H16.5V26H8.16667C7.23452 26 6.5 25.2655 6.5 24.3333V7.66667C6.5 6.73452 7.23452 6 8.16667 6Z" fill="#244E9C"/>
</svg>
