<svg width="32" height="32" viewBox="0 0 32 32" fill="none" xmlns="http://www.w3.org/2000/svg">
<path d="M7.66667 4C5.65348 4 4 5.65348 4 7.66667V24.3333C4 26.3465 5.65348 28 7.66667 28H24.3333C26.3465 28 28 26.3465 28 24.3333V7.66667C28 5.65348 26.3465 4 24.3333 4H7.66667ZM7.66667 6H24.3333C25.2655 6 26 6.73452 26 7.66667V24.3333C26 25.2655 25.2655 26 24.3333 26H20V19.3333H22.4167C22.7527 19.3333 23.0368 19.082 23.0781 18.7487L23.3281 16.7487C23.3521 16.5594 23.292 16.3693 23.1654 16.2253C23.0394 16.0819 22.858 16 22.6667 16H20V13.6667C20 12.9313 20.598 12.3333 21.3333 12.3333H22.6667C23.0347 12.3333 23.3333 12.0353 23.3333 11.6667V9.41667C23.3333 9.07133 23.0699 8.78327 22.7266 8.7526C22.6872 8.74927 21.7467 8.66667 20.556 8.66667C17.618 8.66667 16 10.4108 16 13.5781V16H13.3333C12.9653 16 12.6667 16.298 12.6667 16.6667V18.6667C12.6667 19.0353 12.9653 19.3333 13.3333 19.3333H16V26H7.66667C6.73452 26 6 25.2655 6 24.3333V7.66667C6 6.73452 6.73452 6 7.66667 6Z" fill="white"/>
</svg>
