<svg width="50" height="50" viewBox="0 0 50 50" fill="none" xmlns="http://www.w3.org/2000/svg">
<path d="M43.75 0H30C28.0113 0 26.1038 0.79 24.6975 2.19625L2.19754 24.6963C-0.731211 27.625 -0.731211 32.3738 2.19754 35.3025L14.6975 47.8025C16.1613 49.2675 18.0813 50 20 50C21.9188 50 23.8388 49.2675 25.3025 47.8038L47.8025 25.3038C49.21 23.8963 50 21.9888 50 19.9988V6.25C50 2.79875 47.2013 0 43.75 0ZM23.125 16.875C24.5063 16.875 25.625 17.9938 25.625 19.375C25.625 20.7563 24.5063 21.875 23.125 21.875C21.7438 21.875 20.625 20.7563 20.625 19.375C20.625 17.9938 21.7438 16.875 23.125 16.875ZM23.125 36.875C21.7438 36.875 20.625 35.7563 20.625 34.375C20.625 32.9938 21.7438 31.875 23.125 31.875C24.5063 31.875 25.625 32.9938 25.625 34.375C25.625 35.7563 24.5063 36.875 23.125 36.875ZM31.25 28.75H15C13.965 28.75 13.125 27.91 13.125 26.875C13.125 25.84 13.965 25 15 25H31.25C32.285 25 33.125 25.84 33.125 26.875C33.125 27.91 32.285 28.75 31.25 28.75ZM37.5 16.25C35.4288 16.25 33.75 14.5713 33.75 12.5C33.75 10.4288 35.4288 8.75 37.5 8.75C39.5713 8.75 41.25 10.4288 41.25 12.5C41.25 14.5713 39.5713 16.25 37.5 16.25Z" fill="#244E9C"/>
</svg>
