<svg width="54" height="46" viewBox="0 0 54 46" fill="none" xmlns="http://www.w3.org/2000/svg">
<path d="M26.375 29.5C25.94 29.5 25.5063 29.35 25.1538 29.0487L16.4037 21.5487C15.6175 20.875 15.5275 19.6912 16.2013 18.905C16.875 18.1187 18.0575 18.0262 18.845 18.7025L26.335 25.1225L49.14 4.3C46.2963 1.555 42.4075 0.75 38.875 0.75C34.285 0.75 29.9425 2.8025 27 6.2425C24.0575 2.8025 19.715 0.75 15.125 0.75C8.79 0.75 1.3 3.31 0.79875 15.125H0.75C0.75 15.4187 0.755 15.7187 0.76375 16.02C0.7625 16.1425 0.75 16.25 0.75 16.375C0.75 17.7887 0.795 18.1725 1.06125 19.4862C1.06125 19.485 1.07625 19.485 1.08875 19.4837C1.55 22.2887 2.58 25.325 4.6875 28.5375C11.5863 39.3687 25.5037 45.2875 26.2887 45.6087C26.5163 45.7038 26.7588 45.75 27 45.75C27.2412 45.75 27.4837 45.7038 27.7113 45.61C28.7537 45.1825 53.25 34.9188 53.25 16.375C53.25 12.5075 52.5388 9.57125 51.38 7.3325L27.64 29.0088C27.2825 29.3363 26.8288 29.5 26.375 29.5Z" fill="#244E9C"/>
</svg>
