<svg width="50" height="55" viewBox="0 0 50 55" fill="none" xmlns="http://www.w3.org/2000/svg">
<path d="M25.1368 0.74279C23.7949 0.734196 22.4502 1.20976 21.3746 2.17101L20.1197 3.29162L18.4742 2.92785C15.658 2.2991 12.8508 3.89879 11.9483 6.63879L11.421 8.24035L9.81209 8.74572C7.05834 9.61322 5.42577 12.3978 6.01327 15.2228L6.3575 16.8732L5.21981 18.1183C3.27106 20.2458 3.24848 23.4731 5.17098 25.6256L6.29159 26.8805L5.92782 28.526C5.49226 30.4895 6.15294 32.4312 7.50985 33.7433L0.549399 40.7037C0.321364 40.9317 0.155968 41.2146 0.0691869 41.5252C-0.017594 41.8357 -0.0228277 42.1634 0.0539913 42.4766C0.13081 42.7898 0.287087 43.0778 0.507726 43.313C0.728365 43.5481 1.00591 43.7224 1.31356 43.819L8.65243 46.1236L10.669 53.1427C10.7592 53.4562 10.9296 53.7407 11.1634 53.9681C11.3971 54.1956 11.6862 54.3582 12.002 54.4398C12.3178 54.5214 12.6494 54.5192 12.9641 54.4334C13.2788 54.3477 13.5657 54.1813 13.7965 53.9508L24.3385 43.4088C24.3979 43.3499 24.4534 43.2871 24.5045 43.2208C24.6358 43.2301 24.7659 43.2574 24.8975 43.2574C25.0862 43.2574 25.2735 43.2277 25.4615 43.2086L36.2037 53.9508C36.4344 54.1813 36.7213 54.3477 37.036 54.4334C37.3507 54.5192 37.6824 54.5214 37.9982 54.4398C38.314 54.3582 38.603 54.1956 38.8368 53.9681C39.0706 53.7407 39.241 53.4562 39.3311 53.1427L41.3477 46.1236L48.6866 43.819C48.9943 43.7224 49.2718 43.5481 49.4924 43.313C49.7131 43.0778 49.8694 42.7898 49.9462 42.4766C50.023 42.1634 50.0178 41.8357 49.931 41.5252C49.8442 41.2146 49.6788 40.9317 49.4508 40.7037L42.5318 33.7848C43.7748 32.4941 44.3766 30.6512 43.9869 28.7775L43.6427 27.1271L44.7828 25.8844C46.729 23.7569 46.7492 20.5296 44.8267 18.3771L43.7061 17.1197L44.0723 15.4742C44.6973 12.6567 43.1014 9.85086 40.3614 8.94836L38.7598 8.42101L38.2545 6.81213C37.3882 4.05838 34.6049 2.4233 31.7774 3.0133L30.127 3.35754L28.8819 2.21984C27.8175 1.24547 26.4787 0.751384 25.1368 0.74279ZM32.6344 16.8707C33.114 16.8707 33.5938 17.0538 33.96 17.42C34.6925 18.1525 34.6913 19.3377 33.96 20.069L24.2457 29.7833C23.8794 30.1496 23.4 30.3326 22.92 30.3326C22.44 30.3326 21.9581 30.1496 21.5919 29.7833L16.0426 24.234C15.3101 23.5027 15.3101 22.3139 16.0426 21.5826C16.7751 20.8501 17.9614 20.8501 18.6939 21.5826L22.92 25.8087L31.3087 17.42C31.6749 17.0538 32.1547 16.8707 32.6344 16.8707ZM11.0426 35.5133L11.2403 35.5792L11.7457 37.1881C12.6132 39.9418 15.3915 41.5707 18.2227 40.9869L19.8731 40.6427L20.8814 41.5631L13.3936 49.0509L11.9776 44.1193C11.8918 43.8217 11.7336 43.55 11.5172 43.3285C11.3008 43.1069 11.0329 42.9425 10.7374 42.8497L5.38583 41.17L11.0426 35.5133ZM39.0577 35.6134L44.6143 41.17L39.2628 42.8497C38.9673 42.9425 38.6994 43.1069 38.483 43.3285C38.2665 43.55 38.1084 43.8217 38.0225 44.1193L36.6065 49.0509L29.026 41.4703L29.8805 40.7086L31.526 41.0724C34.3422 41.7011 37.1493 40.1014 38.0518 37.3614L38.5816 35.7623L39.0577 35.6134Z" fill="#244E9C"/>
</svg>
