<svg width="42" height="48" viewBox="0 0 42 48" fill="none" xmlns="http://www.w3.org/2000/svg">
<path d="M0.999618 0C0.679306 0 0.374618 0.15625 0.187118 0.414063C-0.000382364 0.675781 -0.0511636 1.01172 0.0503984 1.31641L0.999618 4.16406V6.09375L0.148056 7.47656C0.0503986 7.63281 -0.000382364 7.81641 -0.000382364 8V9.75C-0.000382364 9.92578 0.0425866 10.0938 0.132431 10.2461L1.99962 13.5156V16.1406C1.99962 16.3594 2.07384 16.5781 2.21056 16.75L4.51915 19.7148L4.69493 20.7422C4.7379 21.0078 4.88634 21.2422 5.10509 21.3945L5.99962 22.0195V23.0156C5.99962 23.1602 6.03087 23.3008 6.08946 23.4336L6.91759 25.25C6.97227 25.375 7.05431 25.4844 7.15587 25.5781L8.45665 26.7461C8.53477 26.8164 8.62462 26.8711 8.72227 26.9141C8.29259 27.0391 7.99962 27.4297 7.99962 27.875V28.75C7.99962 29.0781 8.15977 29.3867 8.43321 29.5742L10.0113 30.6602L11.1676 32.4414C11.1988 32.4961 11.2418 32.5469 11.2848 32.5938L13.1754 34.543L13.3863 34.9805C13.484 35.1953 13.6598 35.3633 13.8746 35.4648L13.9996 35.5195V37.375C13.9996 37.6719 14.1324 37.9531 14.359 38.1406L15.109 38.7656C15.2887 38.918 15.5152 39 15.7496 39H18.7027L19.2418 39.3594L20.3707 40.6562C20.5582 40.875 20.8356 41 21.1246 41H22.6246C22.6246 41.5508 23.0738 42 23.6246 42H24.5777L25.3121 42.75C25.3707 42.8125 25.4371 42.8633 25.5113 42.9062L26.4176 43.4609L26.609 43.7266C26.6481 43.7852 26.6949 43.8359 26.7457 43.8828L27.359 44.4414L28.3004 47.3125C28.4527 47.7773 28.9215 48.0664 29.4059 47.9883L39.1246 46.4336H39.0465C39.2027 46.4336 39.359 46.3945 39.4996 46.3242L40.3277 45.9023C40.5895 45.7695 40.777 45.5312 40.8473 45.2461L40.9723 44.7344C40.9918 44.6602 40.9996 44.5781 40.9996 44.5V44C40.9996 43.4492 40.5504 43 39.9996 43V42.293L40.3981 41.6719C40.5856 41.375 40.609 41.0039 40.4527 40.6875L40.066 39.9062L40.1402 39.6406L41.3629 38.3867C41.6051 38.1406 41.6988 37.793 41.6246 37.4609L41.5074 36.9688C41.4371 36.6719 41.2379 36.4219 40.9606 36.293L40.777 36.2031L39.9996 34.75V34.125C39.9996 33.8281 39.8668 33.5469 39.6402 33.3555L16.9996 14.5312V1C16.9996 0.449219 16.5504 0 15.9996 0H0.999618ZM2.39024 2H14.9996V15C14.9996 15.2969 15.1324 15.5781 15.359 15.7695L37.9996 34.5938V35C37.9996 35.1641 38.0387 35.3242 38.1168 35.4688L39.1676 37.4375C39.2027 37.5078 39.2496 37.5742 39.3043 37.6367L38.5309 38.4258C38.4176 38.5469 38.3356 38.6914 38.2887 38.8477L38.0387 39.7227C37.9723 39.9648 37.9918 40.2188 38.1051 40.4414L38.4098 41.0664L38.1559 41.4609C38.0543 41.6211 37.9996 41.8086 37.9996 42V43.625C37.9996 43.8906 38.1051 44.1445 38.2926 44.332L38.4723 44.5156L29.9332 45.8789L29.1754 43.5664C29.1207 43.4062 29.027 43.2578 28.902 43.1406L28.1715 42.4766L27.9215 42.1289C27.8434 42.0195 27.7457 41.9258 27.6285 41.8594L26.6559 41.2656L25.7145 40.3008C25.527 40.1094 25.2691 40 24.9996 40H24.5504C24.4684 39.7969 24.3238 39.6289 24.1402 39.5156L23.5152 39.1406C23.359 39.0508 23.1793 39 22.9996 39H21.5816L20.6637 37.9414C20.6051 37.875 20.5348 37.8125 20.4566 37.7656L19.5504 37.1641C19.3863 37.0586 19.1949 37 18.9996 37H16.109L15.9996 36.9062V34.875C15.9996 34.4844 15.7691 34.1289 15.4137 33.9648L15.0309 33.793L14.9098 33.5312C14.8629 33.4336 14.8004 33.3438 14.7262 33.2656L12.7887 31.2695L11.5777 29.4062C11.5074 29.2969 11.4176 29.2031 11.3082 29.125L10.3277 28.4531C10.3902 28.3984 10.4449 28.3398 10.4957 28.2734L10.8121 27.8359C10.9332 27.6641 10.9996 27.4609 10.9996 27.25V26.375C10.9996 26.1758 10.941 25.9844 10.8316 25.8203L10.5816 25.4453C10.3981 25.168 10.0856 25 9.74962 25H9.50743L8.65196 24.2305L7.99962 22.8008V21.5C7.99962 21.1719 7.83946 20.8672 7.57384 20.6797L6.59337 19.9961L6.44884 19.1328C6.42149 18.9688 6.35509 18.8164 6.24962 18.6836L3.99962 15.7969V13.25C3.99962 13.0742 3.95665 12.9062 3.86681 12.7539L1.99962 9.48438V8.28125L2.85118 6.89844C2.94884 6.74219 2.99962 6.55859 2.99962 6.375V4C2.99962 3.89062 2.98399 3.78516 2.94884 3.68359L2.39024 2ZM9.99962 28.6367L9.94884 28.6523C9.96446 28.6445 9.98399 28.6406 9.99962 28.6367ZM15.7965 41.0039C15.7379 41.0117 15.6793 41.0273 15.6246 41.0547C15.5777 41.0742 14.2809 41.5859 14.2496 41.6055C14.1363 41.6641 14.0543 41.7695 14.0191 41.8906C13.9723 42.0469 14.0074 42.2148 14.1168 42.3438L14.5504 42.832C14.6481 42.9414 14.7887 43 14.9332 43C14.9762 43 15.0152 42.9961 15.0621 42.9844L17.4527 42.4492C17.566 42.4258 17.6676 42.3633 17.7379 42.2773L17.8902 42.0898C18.0074 41.9492 18.0309 41.7578 17.9566 41.5938C17.8863 41.4297 17.7262 41.3164 17.5426 41.2969L16.8824 41.2422L15.984 41.0156C15.9215 41 15.859 40.9961 15.7965 41.0039ZM21.6285 43C21.5699 43.0039 21.5113 43.0156 21.4527 43.0469L21.2613 43.1484C21.0582 43.2539 20.9566 43.5156 21.0152 43.7617L21.0816 44.0312C21.109 44.1367 21.1676 44.2344 21.2457 44.3008L21.9371 44.8789C22.0035 44.9336 22.0816 44.9648 22.1598 44.9688L22.484 45C22.4957 45 22.5113 45 22.5191 45C22.7496 45 22.9488 44.7969 22.9684 44.5312L22.9957 44.1719C23.0074 44.0195 22.9606 43.8711 22.8707 43.7617L22.5856 43.4336C22.5426 43.3789 22.4879 43.3359 22.4254 43.3125L21.8082 43.0312C21.7496 43.0078 21.6871 42.9961 21.6285 43ZM21.6676 46.0039C21.5699 45.9883 21.4684 46.0039 21.3746 46.0469L21.277 46.0938C21.0621 46.1953 20.9527 46.4414 21.0152 46.6719L21.1441 47.125C21.1637 47.1875 21.2027 47.3203 21.5191 47.6641C21.5582 47.707 21.6051 47.7422 21.6559 47.7695L21.9996 47.9453C22.066 47.9805 22.1481 48 22.2223 48C22.2926 48 22.3629 47.9844 22.4332 47.9531L22.7184 47.8125C22.8668 47.7422 22.9684 47.6055 22.9957 47.4414C23.0152 47.2812 22.9566 47.1172 22.8395 47.0078L21.9293 46.1406C21.8551 46.0664 21.7613 46.0234 21.6676 46.0039Z" fill="#244E9C"/>
</svg>
