<svg width="50" height="43" viewBox="0 0 50 43" fill="none" xmlns="http://www.w3.org/2000/svg">
<path d="M19.875 0.3125C15.1836 0.417969 12.2148 2.31641 10.9375 5.25C9.72266 8.04297 9.97656 11.5625 10.8438 15.2188C10.3789 15.7656 9.99609 16.5352 10.0938 17.6875V17.75C10.2617 18.9688 10.6289 19.8281 11.0938 20.4375C11.3203 20.7344 11.6562 20.7422 11.9375 20.9062C12.1055 21.9883 12.4258 23.0547 12.875 23.9375C13.1289 24.4375 13.3828 24.8789 13.6562 25.25C13.7812 25.4219 13.9609 25.5156 14.0938 25.6562C14.1055 26.9609 14.1562 27.957 14 29.2812C13.6992 30.0391 12.9492 30.6445 11.75 31.25C10.4961 31.8828 8.85547 32.4648 7.1875 33.1875C5.51953 33.9102 3.82812 34.7773 2.46875 36.1562C1.10938 37.5352 0.136719 39.4453 0 41.9375L-0.0625 43H40.0625L40 41.9375C39.8633 39.4453 38.9141 37.5391 37.5625 36.1562C36.2109 34.7734 34.5117 33.9102 32.8438 33.1875C31.1758 32.4648 29.5234 31.8867 28.25 31.25C27.0156 30.6328 26.2422 30.0039 25.9062 29.2188C25.8281 27.8945 25.8125 26.8789 25.8125 25.625C25.9297 25.4922 26.1055 25.4062 26.2188 25.25C26.4844 24.8789 26.7539 24.4336 27 23.9375C27.4336 23.0625 27.7656 21.9883 27.9688 20.9375C28.2891 20.7734 28.6562 20.7617 28.9062 20.4375C29.3867 19.8086 29.668 18.9141 29.7812 17.6875C29.8711 16.6289 29.5664 15.8594 29.0938 15.2812C29.6133 13.6797 30.2305 11.1172 30.0312 8.5C29.9219 7.0625 29.543 5.62891 28.6875 4.4375C27.9141 3.35938 26.6641 2.62109 25.0938 2.28125C24.0352 0.867188 22.1133 0.3125 19.9062 0.3125H19.875ZM19.9062 2.3125C19.918 2.3125 19.9258 2.3125 19.9375 2.3125C21.9336 2.32031 23.2109 2.88281 23.625 3.59375L23.875 4.03125L24.375 4.09375C25.75 4.28516 26.5039 4.81641 27.0625 5.59375C27.6211 6.37109 27.9414 7.45703 28.0312 8.65625C28.2148 11.0586 27.5195 13.875 27.0625 15.1562L26.75 16L27.5312 16.4062C27.5234 16.4336 27.8516 16.7656 27.8125 17.5C27.8125 17.5156 27.8125 17.5156 27.8125 17.5312C27.7188 18.4727 27.4766 19.0039 27.3125 19.2188C27.1445 19.4375 27.0586 19.4062 27.0938 19.4062H26.2188L26.125 20.25C25.9961 21.1523 25.6289 22.1992 25.2188 23.0312C25.0156 23.4453 24.7773 23.8398 24.5938 24.0938C24.4102 24.3477 24.2305 24.4844 24.3125 24.4375L23.8125 24.7188V25.3125C23.8125 26.8125 23.8047 27.9336 23.9062 29.5625V29.7188L23.9688 29.8438C24.5547 31.375 25.8828 32.3359 27.3438 33.0625C28.8047 33.7891 30.4609 34.3516 32.0312 35.0312C33.6016 35.7109 35.0664 36.4805 36.125 37.5625C36.9688 38.4258 37.4766 39.5742 37.75 41H2.25C2.52344 39.5742 3.02734 38.4258 3.875 37.5625C4.9375 36.4805 6.42969 35.7109 8 35.0312C9.57031 34.3516 11.2109 33.793 12.6562 33.0625C14.1016 32.332 15.4102 31.3594 15.9375 29.8125L16 29.625C16.2109 27.9297 16.0938 26.7695 16.0938 25.3125V24.7188L15.5938 24.4375C15.668 24.4805 15.4727 24.3203 15.2812 24.0625C15.0898 23.8047 14.8633 23.4453 14.6562 23.0312C14.2383 22.207 13.8633 21.1797 13.7812 20.3125L13.7188 19.4062H12.875C12.8398 19.3906 12.7461 19.3398 12.6562 19.2188C12.4805 18.9883 12.2305 18.4492 12.0938 17.5312C12.0938 17.5117 12.0938 17.5195 12.0938 17.5C12.0898 17.4844 12.0977 17.4844 12.0938 17.4688C12.0781 16.7109 12.5469 16.2891 12.4688 16.3438L13.0312 15.9375L12.875 15.25C11.9531 11.6055 11.8086 8.30469 12.7812 6.0625C13.7539 3.82812 15.7227 2.41406 19.9062 2.3125ZM33 13V15H50V13H33ZM31 21V23H50V21H31ZM33 29V31H50V29H33Z" fill="#244E9C"/>
</svg>
