<svg width="46" height="46" viewBox="0 0 46 46" fill="none" xmlns="http://www.w3.org/2000/svg">
<path d="M23 0C10.3164 0 0 10.3164 0 23C0 35.6836 10.3164 46 23 46C35.6836 46 46 35.6836 46 23C46 18.4414 44.6602 14.1875 42.3633 10.6094L40.9961 12.2305C42.8906 15.3828 44 19.0586 44 23C44 34.5781 34.5781 44 23 44C11.4219 44 2 34.5781 2 23C2 11.4219 11.4219 2 23 2C28.4414 2 33.3945 4.10156 37.1289 7.50781L38.4375 5.96484C34.3516 2.26172 28.9336 0 23 0ZM41.2344 5.75391L21.9141 28.5547L13.7812 20.9688L12.418 22.4336L22.082 31.4492L42.7656 7.04688L41.2344 5.75391Z" fill="#244E9C"/>
</svg>
