<svg width="42" height="43" viewBox="0 0 42 43" fill="none" xmlns="http://www.w3.org/2000/svg">
<path d="M20.875 0.300781C16.1836 0.40625 13.2109 2.32812 11.9336 5.26562C10.7148 8.06641 10.9805 11.5781 11.8555 15.25C11.3945 15.7969 11.0078 16.5352 11.1055 17.6836V17.707L11.1094 17.7344C11.2773 18.9531 11.6133 19.8203 12.0781 20.4336C12.3125 20.7344 12.6445 20.7461 12.9336 20.9102C13.1016 21.9883 13.4258 23.0586 13.8711 23.9375C14.125 24.4414 14.3945 24.8828 14.6719 25.2539C14.793 25.4219 14.9609 25.5273 15.0938 25.668C15.1055 26.9453 15.1602 27.9453 15.0117 29.2344C14.7188 30.0117 13.9766 30.6484 12.7578 31.2656C11.5039 31.8984 9.85938 32.4609 8.19141 33.1836C6.52344 33.9023 4.82031 34.7891 3.46094 36.168C2.10156 37.5469 1.14062 39.4531 1 41.9453L0.945312 43H41.0586L41 41.9453C40.8594 39.4531 39.9062 37.5508 38.5547 36.1719C37.2031 34.7891 35.5039 33.9023 33.832 33.1836C32.1641 32.4609 30.5117 31.8984 29.2383 31.2617C28.0078 30.6484 27.2305 30.0039 26.8906 29.2227C26.8164 27.9102 26.8086 26.8906 26.8086 25.6562C26.9336 25.5156 27.1055 25.4102 27.2227 25.2461C27.4922 24.8711 27.75 24.4258 27.9961 23.9297C28.4297 23.0508 28.7617 21.9883 28.9648 20.9336C29.2852 20.7695 29.6445 20.7578 29.8945 20.4336C30.375 19.8008 30.6836 18.918 30.7969 17.6914V17.6836C30.8867 16.625 30.5586 15.8672 30.082 15.2891C30.6055 13.6875 31.2188 11.1367 31.0195 8.51172C30.9141 7.07422 30.5547 5.63281 29.7031 4.44141C28.9219 3.35547 27.6562 2.58594 26.0664 2.25391C25.0039 0.859375 23.0938 0.300781 20.9023 0.300781H20.875ZM20.9023 2.30078C22.918 2.30078 24.2188 2.88672 24.6367 3.60156L24.8789 4.02344L25.3594 4.08984C26.7344 4.28125 27.5156 4.82812 28.0742 5.60547C28.6328 6.38281 28.9375 7.46484 29.0273 8.66406C29.2109 11.0664 28.5156 13.8828 28.0586 15.1641L27.7617 16L28.5508 16.3945C28.418 16.3281 28.8789 16.625 28.8008 17.5156C28.7148 18.4844 28.4727 18.9961 28.3047 19.2188C28.1367 19.4375 28.0664 19.4023 28.0977 19.4023H27.2344L27.1094 20.2578C26.9805 21.1602 26.6133 22.2148 26.2031 23.0469C26 23.4609 25.7812 23.8242 25.5977 24.0781C25.418 24.332 25.2227 24.4805 25.3047 24.4336L24.8008 24.7188V25.3008C24.8008 26.3047 24.8125 27.1875 24.8438 28.1211L21 30.2539L17.1094 28.0938C17.1406 27.1289 17.0977 26.2734 17.0977 25.3008V24.7188L16.5938 24.4336C16.6719 24.4727 16.4688 24.3203 16.2773 24.0625C16.0859 23.8086 15.8633 23.4492 15.6562 23.0352C15.2383 22.2109 14.8789 21.1719 14.7969 20.3047L14.707 19.4023H13.8008C13.9492 19.4023 13.8516 19.457 13.6719 19.2188C13.4883 18.9805 13.2383 18.4414 13.1016 17.4961C13.0547 16.6875 13.5391 16.2773 13.4531 16.332L14.043 15.9375L13.8711 15.2539C12.9453 11.6094 12.793 8.30078 13.7656 6.0625C14.7383 3.82422 16.7109 2.39844 20.9023 2.30078ZM16.7852 30.2031L19.2695 31.582L16.9883 34.418L15.1289 32.1602C15.8359 31.6406 16.4219 31.0078 16.7852 30.2031ZM25.1445 30.2383C25.5391 31.0352 26.1562 31.6445 26.875 32.1562L25.0117 34.418L22.7305 31.582L25.1445 30.2383ZM13.375 33.1797L16.2305 36.6367C16.418 36.8672 16.707 37.0039 17.0078 37C17.3086 37 17.5898 36.8594 17.7812 36.625L19.7422 34.1875L20.5 34.8008C20.5 34.8008 18.7461 37.8125 18.2422 41H3.23437C3.51172 39.5742 4.03906 38.4336 4.88672 37.5703C5.94922 36.4883 7.41406 35.6953 8.98438 35.0156C10.457 34.3828 11.9961 33.8438 13.375 33.1797ZM28.625 33.1797C30.0156 33.8438 31.5703 34.3828 33.043 35.0156C34.6094 35.6953 36.0664 36.4883 37.125 37.5664C37.9688 38.4297 38.4922 39.5742 38.7656 41H23.7656C23.2656 37.7578 21.5 34.8008 21.5 34.8008L22.2578 34.1875L24.2188 36.625C24.4102 36.8594 24.6914 37 24.9922 37C25.293 37.0039 25.582 36.8672 25.7695 36.6367L28.625 33.1797Z" fill="#244E9C"/>
</svg>
