<svg width="33" height="32" viewBox="0 0 33 32" fill="none" xmlns="http://www.w3.org/2000/svg">
<path d="M11.4997 3.3335C7.27727 3.3335 3.83301 6.77776 3.83301 11.0002V21.0002C3.83301 25.222 7.27715 28.6668 11.4997 28.6668H21.4997C25.7216 28.6668 29.1663 25.2221 29.1663 21.0002V11.0002C29.1663 6.77764 25.7215 3.3335 21.4997 3.3335H11.4997ZM11.4997 5.3335H21.4997C24.6405 5.3335 27.1663 7.85869 27.1663 11.0002V21.0002C27.1663 24.1409 24.6404 26.6668 21.4997 26.6668H11.4997C8.3582 26.6668 5.83301 24.141 5.83301 21.0002V11.0002C5.83301 7.85857 8.35808 5.3335 11.4997 5.3335ZM23.1663 8.00016C22.4297 8.00016 21.833 8.59683 21.833 9.3335C21.833 10.0702 22.4297 10.6668 23.1663 10.6668C23.903 10.6668 24.4997 10.0702 24.4997 9.3335C24.4997 8.59683 23.903 8.00016 23.1663 8.00016ZM16.4997 9.3335C12.8298 9.3335 9.83301 12.3303 9.83301 16.0002C9.83301 19.67 12.8298 22.6668 16.4997 22.6668C20.1696 22.6668 23.1663 19.67 23.1663 16.0002C23.1663 12.3303 20.1696 9.3335 16.4997 9.3335ZM16.4997 11.3335C19.0885 11.3335 21.1663 13.4114 21.1663 16.0002C21.1663 18.5889 19.0885 20.6668 16.4997 20.6668C13.9109 20.6668 11.833 18.5889 11.833 16.0002C11.833 13.4114 13.9109 11.3335 16.4997 11.3335Z" fill="#244E9C"/>
</svg>
