<svg width="32" height="32" viewBox="0 0 32 32" fill="none" xmlns="http://www.w3.org/2000/svg">
<path d="M10.9997 3.3335C6.77727 3.3335 3.33301 6.77776 3.33301 11.0002V21.0002C3.33301 25.222 6.77715 28.6668 10.9997 28.6668H20.9997C25.2216 28.6668 28.6663 25.2221 28.6663 21.0002V11.0002C28.6663 6.77764 25.2215 3.3335 20.9997 3.3335H10.9997ZM10.9997 5.3335H20.9997C24.1405 5.3335 26.6663 7.85869 26.6663 11.0002V21.0002C26.6663 24.1409 24.1404 26.6668 20.9997 26.6668H10.9997C7.8582 26.6668 5.33301 24.141 5.33301 21.0002V11.0002C5.33301 7.85857 7.85808 5.3335 10.9997 5.3335ZM22.6663 8.00016C21.9297 8.00016 21.333 8.59683 21.333 9.3335C21.333 10.0702 21.9297 10.6668 22.6663 10.6668C23.403 10.6668 23.9997 10.0702 23.9997 9.3335C23.9997 8.59683 23.403 8.00016 22.6663 8.00016ZM15.9997 9.3335C12.3298 9.3335 9.33301 12.3303 9.33301 16.0002C9.33301 19.67 12.3298 22.6668 15.9997 22.6668C19.6696 22.6668 22.6663 19.67 22.6663 16.0002C22.6663 12.3303 19.6696 9.3335 15.9997 9.3335ZM15.9997 11.3335C18.5885 11.3335 20.6663 13.4114 20.6663 16.0002C20.6663 18.5889 18.5885 20.6668 15.9997 20.6668C13.4109 20.6668 11.333 18.5889 11.333 16.0002C11.333 13.4114 13.4109 11.3335 15.9997 11.3335Z" fill="white"/>
</svg>
