<svg width="49" height="48" viewBox="0 0 49 48" fill="none" xmlns="http://www.w3.org/2000/svg">
<path d="M24.4512 3.99999C24.1313 4.01092 23.8234 4.12384 23.5723 4.32226L9.35938 15.5195C7.55548 16.9412 6.5 19.1135 6.5 21.4102V37.5C6.5 40.5198 8.98023 43 12 43H37C40.0198 43 42.5 40.5198 42.5 37.5V21.4102C42.5 19.1135 41.4445 16.9412 39.6406 15.5195L25.4277 4.32226C25.1504 4.10313 24.8045 3.989 24.4512 3.99999ZM24.5 7.41015L37.7852 17.8769C38.8693 18.7313 39.5 20.0308 39.5 21.4102V37.5C39.5 38.8982 38.3982 40 37 40H12C10.6018 40 9.5 38.8982 9.5 37.5V21.4102C9.5 20.0308 10.1307 18.7313 11.2148 17.8769L24.5 7.41015ZM24.4766 18.9785C24.0791 18.9847 23.7003 19.1484 23.4235 19.4337C23.1466 19.719 22.9943 20.1025 23 20.5V25H18.5C18.3012 24.9972 18.1039 25.0339 17.9194 25.108C17.735 25.1821 17.5671 25.2922 17.4255 25.4318C17.284 25.5713 17.1716 25.7376 17.0949 25.921C17.0181 26.1044 16.9786 26.3012 16.9786 26.5C16.9786 26.6988 17.0181 26.8956 17.0949 27.079C17.1716 27.2624 17.284 27.4287 17.4255 27.5682C17.5671 27.7078 17.735 27.8178 17.9194 27.892C18.1039 27.9661 18.3012 28.0028 18.5 28H23V32.5C22.9972 32.6988 23.0339 32.8961 23.108 33.0806C23.1822 33.265 23.2922 33.4329 23.4318 33.5744C23.5713 33.716 23.7376 33.8284 23.921 33.9051C24.1044 33.9818 24.3012 34.0214 24.5 34.0214C24.6988 34.0214 24.8956 33.9818 25.079 33.9051C25.2624 33.8284 25.4287 33.716 25.5682 33.5744C25.7078 33.4329 25.8178 33.265 25.892 33.0806C25.9661 32.8961 26.0028 32.6988 26 32.5V28H30.5C30.6988 28.0028 30.8961 27.9661 31.0806 27.892C31.265 27.8178 31.4329 27.7078 31.5745 27.5682C31.716 27.4287 31.8284 27.2624 31.9051 27.079C31.9819 26.8956 32.0214 26.6988 32.0214 26.5C32.0214 26.3012 31.9819 26.1044 31.9051 25.921C31.8284 25.7376 31.716 25.5713 31.5745 25.4318C31.4329 25.2922 31.265 25.1821 31.0806 25.108C30.8961 25.0339 30.6988 24.9972 30.5 25H26V20.5C26.0029 20.2992 25.9654 20.0999 25.8899 19.9139C25.8143 19.7279 25.7022 19.5589 25.5601 19.417C25.418 19.2751 25.2489 19.1632 25.0628 19.0879C24.8767 19.0126 24.6773 18.9754 24.4766 18.9785Z" fill="#244E9C"/>
</svg>
