<svg width="49" height="48" viewBox="0 0 49 48" fill="none" xmlns="http://www.w3.org/2000/svg">
<path d="M30.498 3C28.29 3 26.5 4.79205 26.5 6.99805C26.5 9.20805 28.29 11 30.498 11C32.711 11 34.5 9.20805 34.5 6.99805C34.5 4.79205 32.711 3 30.498 3ZM11.998 10C10.066 10 8.5 11.568 8.5 13.498C8.5 15.432 10.066 17 11.998 17C12.6552 17 13.2622 16.8082 13.7871 16.4941L17.168 18.748C17.3619 18.8773 17.5832 18.9595 17.8144 18.9884C18.0456 19.0172 18.2803 18.9917 18.5 18.9141L18.5195 18.9062L22.8184 18.6816L20.3242 26.2617L20.3223 26.3398L17.5879 33.9961C17.514 34.1832 17.4786 34.3833 17.4836 34.5844C17.4886 34.7856 17.5341 34.9836 17.6172 35.1668C17.7004 35.3501 17.8195 35.5147 17.9676 35.6509C18.1157 35.7871 18.2896 35.8921 18.4791 35.9598C18.6686 36.0274 18.8697 36.0562 19.0706 36.0445C19.2714 36.0328 19.4679 35.9808 19.6482 35.8916C19.8286 35.8024 19.9891 35.6779 20.1204 35.5254C20.2516 35.3729 20.3508 35.1955 20.4121 35.0039L20.4785 34.8184L24.5 28L21.4023 43.2734L21.2441 43.8008C21.1819 43.991 21.1584 44.1917 21.175 44.3912C21.1916 44.5906 21.2479 44.7847 21.3406 44.9621C21.4333 45.1394 21.5606 45.2964 21.7149 45.4238C21.8692 45.5513 22.0475 45.6465 22.2392 45.704C22.4309 45.7614 22.6322 45.78 22.8311 45.7585C23.0301 45.737 23.2228 45.6759 23.3978 45.5788C23.5728 45.4817 23.7266 45.3506 23.8501 45.1932C23.9737 45.0357 24.0645 44.8552 24.1172 44.6621L27.9941 31.7422L31.6289 20.6602L34.5 23L35.8984 26.4961L36.5527 28.8945C36.603 29.0863 36.6908 29.2662 36.811 29.4238C36.9312 29.5815 37.0814 29.7137 37.2531 29.8129C37.4247 29.9122 37.6143 29.9764 37.8109 30.0019C38.0075 30.0274 38.2072 30.0137 38.3984 29.9615C38.5897 29.9094 38.7687 29.8199 38.9252 29.6981C39.0816 29.5764 39.2124 29.4248 39.3099 29.2522C39.4074 29.0796 39.4698 28.8894 39.4934 28.6926C39.5169 28.4958 39.5013 28.2962 39.4473 28.1055L37.5723 21.2305C37.5179 21.0309 37.4228 20.8447 37.293 20.6836L33.168 15.5586C33.1303 15.5119 33.0899 15.4676 33.0469 15.4258C31.8368 14.2455 30.5848 13.5583 29.3691 13.2344C29.1345 13.159 28.8943 13.1006 28.6445 13.0645C28.6407 13.0639 28.6366 13.063 28.6328 13.0625C28.6181 13.0604 28.6045 13.0625 28.5898 13.0605C28.3942 13.0346 28.2008 13 27.998 13C27.9519 13 27.9091 13.0123 27.8633 13.0137C26.7379 12.9841 25.7218 13.2172 24.8652 13.4824C24.8462 13.4879 24.8274 13.4938 24.8086 13.5L18.207 15.8359L15.4492 13.998C15.473 13.8332 15.5 13.6695 15.5 13.498C15.5 11.568 13.935 10 11.998 10Z" fill="#244E9C"/>
</svg>
