<svg width="49" height="48" viewBox="0 0 49 48" fill="none" xmlns="http://www.w3.org/2000/svg">
<path d="M16.9709 4.98634C16.5814 4.99769 16.2115 5.1602 15.9397 5.43946L10.0002 11.3789L7.06078 8.43946C6.92256 8.29551 6.75701 8.18058 6.57382 8.1014C6.39063 8.02223 6.19348 7.9804 5.99392 7.97837C5.79436 7.97634 5.5964 8.01415 5.41164 8.08958C5.22687 8.16502 5.05902 8.27656 4.9179 8.41768C4.77678 8.55879 4.66524 8.72665 4.58981 8.91141C4.51437 9.09618 4.47656 9.29414 4.47859 9.4937C4.48062 9.69325 4.52245 9.8904 4.60162 10.0736C4.6808 10.2568 4.79573 10.4223 4.93969 10.5606L8.93969 14.5606C9.221 14.8418 9.60248 14.9997 10.0002 14.9997C10.398 14.9997 10.7795 14.8418 11.0608 14.5606L18.0608 7.56056C18.2772 7.3498 18.4249 7.07863 18.4847 6.78252C18.5444 6.48642 18.5133 6.17918 18.3956 5.90101C18.2778 5.62284 18.0788 5.3867 17.8246 5.2235C17.5704 5.0603 17.2729 4.97764 16.9709 4.98634ZM22.0002 9.00001C21.8015 8.9972 21.6041 9.03392 21.4197 9.10804C21.2352 9.18216 21.0673 9.2922 20.9258 9.43177C20.7842 9.57134 20.6718 9.73765 20.5951 9.92103C20.5184 10.1044 20.4789 10.3012 20.4789 10.5C20.4789 10.6988 20.5184 10.8956 20.5951 11.079C20.6718 11.2624 20.7842 11.4287 20.9258 11.5683C21.0673 11.7078 21.2352 11.8179 21.4197 11.892C21.6041 11.9661 21.8015 12.0028 22.0002 12H43.0002C43.199 12.0028 43.3964 11.9661 43.5808 11.892C43.7653 11.8179 43.9331 11.7078 44.0747 11.5683C44.2162 11.4287 44.3286 11.2624 44.4054 11.079C44.4821 10.8956 44.5216 10.6988 44.5216 10.5C44.5216 10.3012 44.4821 10.1044 44.4054 9.92103C44.3286 9.73765 44.2162 9.57134 44.0747 9.43177C43.9331 9.2922 43.7653 9.18216 43.5808 9.10804C43.3964 9.03392 43.199 8.9972 43.0002 9.00001H22.0002ZM16.9709 18.4863C16.5814 18.4977 16.2115 18.6602 15.9397 18.9395L10.0002 24.8789L7.06078 21.9395C6.92256 21.7955 6.75701 21.6806 6.57382 21.6014C6.39063 21.5222 6.19348 21.4804 5.99392 21.4784C5.79436 21.4763 5.5964 21.5142 5.41164 21.5896C5.22687 21.665 5.05902 21.7766 4.9179 21.9177C4.77678 22.0588 4.66524 22.2266 4.58981 22.4114C4.51438 22.5962 4.47657 22.7941 4.47859 22.9937C4.48062 23.1933 4.52245 23.3904 4.60162 23.5736C4.6808 23.7568 4.79573 23.9223 4.93969 24.0606L8.93969 28.0606C9.221 28.3418 9.60248 28.4997 10.0002 28.4997C10.398 28.4997 10.7795 28.3418 11.0608 28.0606L18.0608 21.0606C18.2772 20.8498 18.4249 20.5786 18.4847 20.2825C18.5444 19.9864 18.5133 19.6792 18.3956 19.401C18.2778 19.1228 18.0788 18.8867 17.8246 18.7235C17.5704 18.5603 17.2729 18.4776 16.9709 18.4863ZM22.0002 22.5C21.8015 22.4972 21.6041 22.5339 21.4197 22.608C21.2352 22.6822 21.0673 22.7922 20.9258 22.9318C20.7842 23.0713 20.6718 23.2376 20.5951 23.421C20.5184 23.6044 20.4789 23.8012 20.4789 24C20.4789 24.1988 20.5184 24.3956 20.5951 24.579C20.6718 24.7624 20.7842 24.9287 20.9258 25.0683C21.0673 25.2078 21.2352 25.3179 21.4197 25.392C21.6041 25.4661 21.8015 25.5028 22.0002 25.5H43.0002C43.199 25.5028 43.3964 25.4661 43.5808 25.392C43.7653 25.3179 43.9331 25.2078 44.0747 25.0683C44.2162 24.9287 44.3286 24.7624 44.4054 24.579C44.4821 24.3956 44.5216 24.1988 44.5216 24C44.5216 23.8012 44.4821 23.6044 44.4054 23.421C44.3286 23.2376 44.2162 23.0713 44.0747 22.9318C43.9331 22.7922 43.7653 22.6822 43.5808 22.608C43.3964 22.5339 43.199 22.4972 43.0002 22.5H22.0002ZM16.9709 31.9863C16.5814 31.9977 16.2115 32.1602 15.9397 32.4395L10.0002 38.3789L7.06078 35.4395C6.92256 35.2955 6.75701 35.1806 6.57382 35.1014C6.39063 35.0222 6.19348 34.9804 5.99392 34.9784C5.79436 34.9763 5.5964 35.0142 5.41164 35.0896C5.22687 35.165 5.05902 35.2766 4.9179 35.4177C4.77678 35.5588 4.66524 35.7267 4.58981 35.9114C4.51438 36.0962 4.47657 36.2941 4.47859 36.4937C4.48062 36.6933 4.52245 36.8904 4.60162 37.0736C4.6808 37.2568 4.79573 37.4223 4.93969 37.5606L8.93969 41.5606C9.221 41.8418 9.60248 41.9997 10.0002 41.9997C10.398 41.9997 10.7795 41.8418 11.0608 41.5606L18.0608 34.5606C18.2772 34.3498 18.4249 34.0786 18.4847 33.7825C18.5444 33.4864 18.5133 33.1792 18.3956 32.901C18.2778 32.6228 18.0788 32.3867 17.8246 32.2235C17.5704 32.0603 17.2729 31.9776 16.9709 31.9863ZM22.0002 36C21.8015 35.9972 21.6041 36.0339 21.4197 36.108C21.2352 36.1822 21.0673 36.2922 20.9258 36.4318C20.7842 36.5713 20.6718 36.7376 20.5951 36.921C20.5184 37.1044 20.4789 37.3012 20.4789 37.5C20.4789 37.6988 20.5184 37.8956 20.5951 38.079C20.6718 38.2624 20.7842 38.4287 20.9258 38.5683C21.0673 38.7078 21.2352 38.8179 21.4197 38.892C21.6041 38.9661 21.8015 39.0028 22.0002 39H43.0002C43.199 39.0028 43.3964 38.9661 43.5808 38.892C43.7653 38.8179 43.9331 38.7078 44.0747 38.5683C44.2162 38.4287 44.3286 38.2624 44.4054 38.079C44.4821 37.8956 44.5216 37.6988 44.5216 37.5C44.5216 37.3012 44.4821 37.1044 44.4054 36.921C44.3286 36.7376 44.2162 36.5713 44.0747 36.4318C43.9331 36.2922 43.7653 36.1822 43.5808 36.108C43.3964 36.0339 43.199 35.9972 43.0002 36H22.0002Z" fill="#244E9C"/>
</svg>
