<svg width="32" height="41" viewBox="0 0 32 41" fill="none" xmlns="http://www.w3.org/2000/svg">
<path d="M10.5415 0.0138427C9.88324 -0.0340453 9.20876 0.0332358 8.54736 0.228686L6.18017 0.929858C3.65772 1.67587 1.68682 3.67725 1.02002 6.2033C-0.460559 11.821 1.23316 18.4705 5.64111 25.9552C10.0429 33.4297 15.0585 38.1801 20.7231 39.7306C23.2741 40.4289 26.0252 39.7619 27.9575 37.967L29.7583 36.297C31.7733 34.4262 32.0738 31.3101 30.4458 29.0959L27.8442 25.5627C26.4497 23.6685 23.9914 22.8621 21.731 23.5412L17.6606 24.7599C17.4898 24.8098 17.0809 24.5771 16.7251 24.2697L16.7231 24.2677C16.0894 23.7167 15.2113 22.6029 14.272 21.0099V21.008C13.2647 19.2973 12.8351 18.1785 12.6626 17.5177C12.49 16.8567 12.5319 16.7763 12.5571 16.5529C12.5702 16.4414 12.6232 16.3381 12.7134 16.256L12.7153 16.2541L15.7505 13.4787C17.4894 11.889 18.0143 9.34868 17.0337 7.21111L15.2036 3.21892V3.21697C14.342 1.33887 12.5158 0.157467 10.5415 0.0138427ZM10.3247 3.00603C11.2429 3.07463 12.0884 3.62539 12.4751 4.46892L14.3071 8.46111C14.7505 9.42753 14.5282 10.5334 13.727 11.2658L10.6919 14.0392C10.0697 14.6066 9.67178 15.38 9.57666 16.215V16.217C9.55188 16.4365 9.49332 17.2531 9.76025 18.2756C10.0272 19.2981 10.5783 20.6505 11.686 22.5314H11.688C12.7216 24.2844 13.6984 25.6162 14.7563 26.5353H14.7583C15.1019 26.8328 16.5418 28.2128 18.5005 27.6408L18.5063 27.6388L22.5942 26.4142C23.6557 26.0953 24.7908 26.4761 25.4282 27.342L28.0298 30.8752C28.7665 31.8788 28.6378 33.2432 27.7173 34.0978L25.9165 35.7697C24.7648 36.84 23.0547 37.2577 21.5142 36.8361C16.9348 35.5826 12.4033 31.5253 8.22705 24.4338C4.045 17.3326 2.73698 11.4592 3.92041 6.96892C4.3116 5.48697 5.51019 4.2568 7.03174 3.80681L9.39697 3.10564C9.70508 3.01459 10.0186 2.98316 10.3247 3.00603Z" fill="#244E9C"/>
</svg>
