<svg width="41" height="40" viewBox="0 0 41 40" fill="none" xmlns="http://www.w3.org/2000/svg">
<path d="M7 0C3.42806 0 0.5 2.92806 0.5 6.5V22.5V28.5352C0.5 30.4868 2.88991 31.7051 4.46875 30.5586C4.4694 30.5586 4.47005 30.5586 4.4707 30.5586L8.79102 27.416C9.61496 30.0616 12.0943 32 15 32H27.5117L36.5293 38.5586C36.5299 38.5586 36.5306 38.5586 36.5312 38.5586C38.11 39.7051 40.5 38.4868 40.5 36.5352V30.5V14.5C40.5 10.9281 37.5719 8 34 8H32.5V6.5C32.5 2.92806 29.5719 0 26 0H7ZM7 3H26C27.9501 3 29.5 4.54994 29.5 6.5V17.5C29.5 19.4501 27.9501 21 26 21H13C12.6828 21 12.3737 21.1005 12.1172 21.2871L3.5 27.5547V22.5V6.5C3.5 4.54994 5.04994 3 7 3ZM32.5 11H34C35.9501 11 37.5 12.5499 37.5 14.5V30.5V35.5547L28.8828 29.2871C28.6263 29.1005 28.3172 29 28 29H15C13.0499 29 11.5 27.4501 11.5 25.5V25.4453L13.4883 24H26C29.5719 24 32.5 21.0719 32.5 17.5V11Z" fill="#244E9C"/>
</svg>
