<svg width="37" height="38" viewBox="0 0 37 38" fill="none" xmlns="http://www.w3.org/2000/svg">
<path d="M18.5 0.015625C17.3513 0.015625 16.203 0.389276 15.2539 1.13672C15.2533 1.13672 15.2526 1.13672 15.252 1.13672L3.35938 10.5098C1.55581 11.9311 0.5 14.103 0.5 16.4004V34.4883C0.5 36.4032 2.08505 37.9883 4 37.9883H33C34.915 37.9883 36.5 36.4032 36.5 34.4883V16.4004C36.5 14.103 35.4442 11.9311 33.6406 10.5098C33.6406 10.5091 33.6406 10.5085 33.6406 10.5078L21.7461 1.13672C20.797 0.389276 19.6487 0.015625 18.5 0.015625ZM18.5 3.00781C18.9898 3.00781 19.4798 3.17058 19.8906 3.49414L31.7852 12.8652C32.8696 13.7199 33.5 15.0198 33.5 16.4004V34.4883C33.5 34.7833 33.295 34.9883 33 34.9883H4C3.70495 34.9883 3.5 34.7833 3.5 34.4883V16.4004C3.5 15.0198 4.13041 13.7199 5.21484 12.8652L17.1094 3.49414C17.5202 3.17058 18.0102 3.00781 18.5 3.00781ZM18.5 9C17.7044 9 16.9413 9.31607 16.3787 9.87868C15.8161 10.4413 15.5 11.2044 15.5 12C15.5 12.7956 15.8161 13.5587 16.3787 14.1213C16.9413 14.6839 17.7044 15 18.5 15C19.2956 15 20.0587 14.6839 20.6213 14.1213C21.1839 13.5587 21.5 12.7956 21.5 12C21.5 11.2044 21.1839 10.4413 20.6213 9.87868C20.0587 9.31607 19.2956 9 18.5 9ZM18.1113 17C15.5653 17 13.5 19.0653 13.5 21.6113V26C13.5 26.7389 13.9044 27.3764 14.5 27.7227V31.5C14.4972 31.6988 14.5339 31.8961 14.608 32.0806C14.6822 32.265 14.7922 32.4329 14.9318 32.5745C15.0713 32.716 15.2376 32.8284 15.421 32.9051C15.6044 32.9819 15.8012 33.0214 16 33.0214C16.1988 33.0214 16.3956 32.9819 16.579 32.9051C16.7624 32.8284 16.9287 32.716 17.0682 32.5745C17.2078 32.4329 17.3178 32.265 17.392 32.0806C17.4661 31.8961 17.5028 31.6988 17.5 31.5V28H19.5V31.5C19.4972 31.6988 19.5339 31.8961 19.608 32.0806C19.6822 32.265 19.7922 32.4329 19.9318 32.5745C20.0713 32.716 20.2376 32.8284 20.421 32.9051C20.6044 32.9819 20.8012 33.0214 21 33.0214C21.1988 33.0214 21.3956 32.9819 21.579 32.9051C21.7624 32.8284 21.9287 32.716 22.0682 32.5745C22.2078 32.4329 22.3178 32.265 22.392 32.0806C22.4661 31.8961 22.5028 31.6988 22.5 31.5V27.7227C23.0956 27.3764 23.5 26.7389 23.5 26V21.6113C23.5 19.0653 21.4357 17 18.8887 17H18.1113Z" fill="#244E9C"/>
</svg>
