<svg width="35" height="40" viewBox="0 0 35 40" fill="none" xmlns="http://www.w3.org/2000/svg">
<path d="M17.5 0C8.12925 0 0.5 7.62925 0.5 17C0.5 21.2068 2.04331 25.0648 4.57812 28.0312L4.58594 28.0391L4.5918 28.0469C4.5918 28.0469 11.8237 36.299 14.3984 38.7559C16.1226 40.3997 18.8755 40.3997 20.5996 38.7559C23.5344 35.9567 30.4102 28.043 30.4102 28.043L30.4141 28.0371L30.4199 28.0312C32.957 25.0648 34.5 21.2068 34.5 17C34.5 7.62925 26.8707 0 17.5 0ZM17.5 3C25.2493 3 31.5 9.25075 31.5 17C31.5 20.4752 30.2335 23.6326 28.1387 26.082C28.125 26.0976 21.09 34.1435 18.5293 36.5859C17.9354 37.1521 17.0626 37.1521 16.4688 36.5859C14.3286 34.5437 6.8811 26.1066 6.85938 26.082L6.85742 26.0801C4.76533 23.6308 3.5 20.4742 3.5 17C3.5 9.25075 9.75075 3 17.5 3ZM17.5 11C15.625 11 14.0288 11.7571 13.0039 12.9102C11.979 14.0632 11.5 15.5417 11.5 17C11.5 18.4583 11.979 19.9368 13.0039 21.0898C14.0288 22.2429 15.625 23 17.5 23C19.375 23 20.9712 22.2429 21.9961 21.0898C23.021 19.9368 23.5 18.4583 23.5 17C23.5 15.5417 23.021 14.0632 21.9961 12.9102C20.9712 11.7571 19.375 11 17.5 11ZM17.5 14C18.625 14 19.2788 14.3679 19.7539 14.9023C20.229 15.4368 20.5 16.2083 20.5 17C20.5 17.7917 20.229 18.5632 19.7539 19.0977C19.2788 19.6321 18.625 20 17.5 20C16.375 20 15.7212 19.6321 15.2461 19.0977C14.771 18.5632 14.5 17.7917 14.5 17C14.5 16.2083 14.771 15.4368 15.2461 14.9023C15.7212 14.3679 16.375 14 17.5 14Z" fill="#244E9C"/>
</svg>
