<svg width="33" height="40" viewBox="0 0 33 40" fill="none" xmlns="http://www.w3.org/2000/svg">
<path d="M13 0C10.7034 0 8.8057 1.76662 8.55078 4H5C2.5325 4 0.5 6.0325 0.5 8.5V35.5C0.5 37.9675 2.5325 40 5 40H28C30.4675 40 32.5 37.9675 32.5 35.5V8.5C32.5 6.0325 30.4675 4 28 4H24.4492C24.1943 1.76662 22.2966 0 20 0H13ZM13 3H20C20.8465 3 21.5 3.6535 21.5 4.5C21.5 5.3465 20.8465 6 20 6H13C12.1535 6 11.5 5.3465 11.5 4.5C11.5 3.6535 12.1535 3 13 3ZM5 7H9.26953C10.0812 8.2019 11.4547 9 13 9H20C21.5453 9 22.9188 8.2019 23.7305 7H28C28.8465 7 29.5 7.6535 29.5 8.5V35.5C29.5 36.3465 28.8465 37 28 37H5C4.1535 37 3.5 36.3465 3.5 35.5V8.5C3.5 7.6535 4.1535 7 5 7ZM16.4766 12.9785C16.0791 12.9847 15.7003 13.1485 15.4235 13.4337C15.1466 13.719 14.9943 14.1025 15 14.5V16H13.5C13.3012 15.9972 13.1039 16.0339 12.9194 16.108C12.735 16.1822 12.5671 16.2922 12.4255 16.4318C12.284 16.5713 12.1716 16.7376 12.0949 16.921C12.0181 17.1044 11.9786 17.3012 11.9786 17.5C11.9786 17.6988 12.0181 17.8956 12.0949 18.079C12.1716 18.2624 12.284 18.4287 12.4255 18.5682C12.5671 18.7078 12.735 18.8178 12.9194 18.892C13.1039 18.9661 13.3012 19.0028 13.5 19H15V20.5C14.9972 20.6988 15.0339 20.8961 15.108 21.0806C15.1822 21.265 15.2922 21.4329 15.4318 21.5745C15.5713 21.716 15.7376 21.8284 15.921 21.9051C16.1044 21.9819 16.3012 22.0214 16.5 22.0214C16.6988 22.0214 16.8956 21.9819 17.079 21.9051C17.2624 21.8284 17.4287 21.716 17.5682 21.5745C17.7078 21.4329 17.8178 21.265 17.892 21.0806C17.9661 20.8961 18.0028 20.6988 18 20.5V19H19.5C19.6988 19.0028 19.8961 18.9661 20.0806 18.892C20.265 18.8178 20.4329 18.7078 20.5745 18.5682C20.716 18.4287 20.8284 18.2624 20.9051 18.079C20.9819 17.8956 21.0214 17.6988 21.0214 17.5C21.0214 17.3012 20.9819 17.1044 20.9051 16.921C20.8284 16.7376 20.716 16.5713 20.5745 16.4318C20.4329 16.2922 20.265 16.1822 20.0806 16.108C19.8961 16.0339 19.6988 15.9972 19.5 16H18V14.5C18.0029 14.2992 17.9654 14.0999 17.8899 13.9139C17.8143 13.7279 17.7022 13.5589 17.5601 13.417C17.418 13.2752 17.2489 13.1632 17.0628 13.0879C16.8767 13.0126 16.6773 12.9754 16.4766 12.9785ZM10 24C9.80123 23.9972 9.60389 24.0339 9.41944 24.108C9.23498 24.1822 9.0671 24.2922 8.92555 24.4318C8.78399 24.5713 8.67159 24.7376 8.59487 24.921C8.51814 25.1044 8.47864 25.3012 8.47864 25.5C8.47864 25.6988 8.51814 25.8956 8.59487 26.079C8.67159 26.2624 8.78399 26.4287 8.92555 26.5682C9.0671 26.7078 9.23498 26.8178 9.41944 26.892C9.60389 26.9661 9.80123 27.0028 10 27H23C23.1988 27.0028 23.3961 26.9661 23.5806 26.892C23.765 26.8178 23.9329 26.7078 24.0745 26.5682C24.216 26.4287 24.3284 26.2624 24.4051 26.079C24.4819 25.8956 24.5214 25.6988 24.5214 25.5C24.5214 25.3012 24.4819 25.1044 24.4051 24.921C24.3284 24.7376 24.216 24.5713 24.0745 24.4318C23.9329 24.2922 23.765 24.1822 23.5806 24.108C23.3961 24.0339 23.1988 23.9972 23 24H10ZM10 29C9.80123 28.9972 9.60389 29.0339 9.41944 29.108C9.23498 29.1822 9.0671 29.2922 8.92555 29.4318C8.78399 29.5713 8.67159 29.7376 8.59487 29.921C8.51814 30.1044 8.47864 30.3012 8.47864 30.5C8.47864 30.6988 8.51814 30.8956 8.59487 31.079C8.67159 31.2624 8.78399 31.4287 8.92555 31.5682C9.0671 31.7078 9.23498 31.8178 9.41944 31.892C9.60389 31.9661 9.80123 32.0028 10 32H23C23.1988 32.0028 23.3961 31.9661 23.5806 31.892C23.765 31.8178 23.9329 31.7078 24.0745 31.5682C24.216 31.4287 24.3284 31.2624 24.4051 31.079C24.4819 30.8956 24.5214 30.6988 24.5214 30.5C24.5214 30.3012 24.4819 30.1044 24.4051 29.921C24.3284 29.7376 24.216 29.5713 24.0745 29.4318C23.9329 29.2922 23.765 29.1822 23.5806 29.108C23.3961 29.0339 23.1988 28.9972 23 29H10Z" fill="#244E9C"/>
</svg>
