<svg width="51" height="50" viewBox="0 0 51 50" fill="none" xmlns="http://www.w3.org/2000/svg">
<path d="M13.5005 0C9.64508 0 6.50055 3.14453 6.50055 7C6.50055 10.8555 9.64508 14 13.5005 14C17.356 14 20.5005 10.8555 20.5005 7C20.5005 3.14453 17.356 0 13.5005 0ZM37.5005 0C35.1177 0 32.9849 1.19922 31.7193 3.03125C31.6763 3.05078 31.6334 3.07031 31.5943 3.09375C30.4849 3.57031 29.0318 4.30078 27.813 5.6875C26.5943 7.07422 25.6607 9.10156 25.5005 11.9375C25.4849 12.2148 25.5826 12.4844 25.7701 12.6836C25.9615 12.8867 26.2232 13 26.5005 13H30.5005C31.0513 13 31.5005 12.5508 31.5005 12C31.5005 11.5078 31.5123 11.0898 31.5318 10.6562C32.7662 12.6602 34.9849 14 37.5005 14C40.0162 14 42.2349 12.6602 43.4693 10.6562C43.4888 11.0898 43.5005 11.5078 43.5005 12C43.5005 12.5508 43.9498 13 44.5005 13H48.5005C48.7779 13 49.0396 12.8867 49.231 12.6836C49.4185 12.4844 49.5162 12.2148 49.5005 11.9375C49.3404 9.10156 48.4068 7.07422 47.188 5.6875C45.9693 4.30078 44.5162 3.57031 43.4068 3.09375C43.3677 3.08203 43.3248 3.07031 43.2818 3.0625C42.0201 1.21875 39.8951 0 37.5005 0ZM13.5005 2C16.274 2 18.5005 4.22656 18.5005 7C18.5005 9.77344 16.274 12 13.5005 12C10.7271 12 8.50055 9.77344 8.50055 7C8.50055 4.22656 10.7271 2 13.5005 2ZM37.5005 2C40.274 2 42.5005 4.22656 42.5005 7C42.5005 9.77344 40.274 12 37.5005 12C34.7271 12 32.5005 9.77344 32.5005 7C32.5005 4.22656 34.7271 2 37.5005 2ZM30.063 6.375C29.8013 7.49219 29.6255 8.99219 29.563 11H27.7193C28.0005 9.22266 28.5435 7.87891 29.313 7C29.5396 6.74219 29.817 6.58203 30.063 6.375ZM44.938 6.375C45.1841 6.58203 45.4615 6.74219 45.688 7C46.4576 7.87891 47.0005 9.22266 47.2818 11H45.438C45.3755 8.99219 45.1998 7.49219 44.938 6.375ZM9.9068 14.9062C6.95367 14.9062 4.25055 16.875 3.5318 19.75L0.531798 31.4375C0.531798 31.457 0.531798 31.4805 0.531798 31.5C0.234923 32.9922 1.12555 34.3945 2.4693 34.8438C2.50836 34.8555 2.55133 34.8672 2.5943 34.875C4.00445 35.1562 5.57477 34.375 5.93805 32.875H5.9693L6.50055 30.9062V35.8125C6.49274 35.875 6.49274 35.9375 6.50055 36C6.50055 36.0312 6.50055 36.0625 6.50055 36.0938V47C6.50055 48.6445 7.85602 50 9.50055 50C11.1451 50 12.5005 48.6445 12.5005 47V37H14.5005V47C14.5005 48.6445 15.856 50 17.5005 50C19.1451 50 20.5005 48.6445 20.5005 47V36.1562C20.5045 36.1055 20.5045 36.0508 20.5005 36C20.5005 35.9688 20.5005 35.9375 20.5005 35.9062V31.1875L20.938 32.8438C21.2623 34.1367 22.3873 35 23.688 35C23.7896 35 24.2427 35.1641 24.813 34.5938L24.7505 34.5312C24.9498 34.4414 25.1412 34.3125 25.313 34.1875C25.6099 34.4766 25.9771 34.7148 26.4068 34.8438C26.6724 34.9219 26.9459 34.9648 27.2193 34.9688L26.9693 35.6562C26.856 35.9609 26.9029 36.3047 27.0865 36.5703C27.274 36.8398 27.5787 37 27.9068 37H32.5005V47C32.5005 48.6445 33.856 50 35.5005 50C36.2662 50 36.9693 49.6992 37.5005 49.2188C38.0318 49.6992 38.7349 50 39.5005 50C41.1451 50 42.5005 48.6445 42.5005 47V37H47.0943C47.4224 37 47.7271 36.8398 47.9146 36.5703C48.0982 36.3047 48.1451 35.9609 48.0318 35.6562L47.7818 35C47.9771 34.9805 48.2271 34.9141 48.5005 34.8125V34.8438C48.5396 34.832 48.5552 34.793 48.5943 34.7812C48.6177 34.7695 48.6334 34.793 48.6568 34.7812V34.75C50.0982 34.2031 50.692 32.6094 50.2505 31.2812C50.2505 31.2695 50.2505 31.2617 50.2505 31.25L45.6255 19.1562C44.6724 16.6484 42.2076 15 39.5005 15H35.4068C32.6998 15 30.2037 16.6484 29.2505 19.1562L25.6568 28.625L23.3755 19.75C22.6646 16.8984 20.0357 14.9062 17.0005 14.9062H9.9068ZM9.9068 16.9062H17.0005C19.1646 16.9062 20.9498 18.3008 21.438 20.25L24.438 31.9375C24.438 31.957 24.438 31.9805 24.438 32C24.5787 32.4727 24.3521 32.8164 23.9068 32.9062C23.8287 32.9297 23.7584 32.9609 23.688 33C23.3873 33 22.9537 32.6484 22.8755 32.3438L20.4693 23.1562C20.3443 22.668 19.8755 22.3477 19.3755 22.4141C18.8755 22.4766 18.5005 22.9023 18.5005 23.4062V28H8.50055V23.4062C8.52008 22.8945 8.14899 22.4531 7.64117 22.3828C7.13727 22.3086 6.6568 22.6289 6.5318 23.125L4.0318 32.3438C4.0318 32.3633 4.0318 32.3867 4.0318 32.4062C3.94977 32.8203 3.58258 32.9883 3.06305 32.9062C2.6568 32.7422 2.39117 32.4023 2.4693 31.9375C2.4693 31.9258 2.46539 31.918 2.4693 31.9062L5.4693 20.25C5.94977 18.3242 7.85992 16.9062 9.9068 16.9062ZM35.4068 17H39.5005C41.3951 17 43.106 18.1484 43.7505 19.8438L48.3443 31.9062C48.481 32.3203 48.3326 32.8086 47.9068 32.9375C47.8521 32.9531 47.8013 32.9766 47.7505 33C47.7896 32.9805 47.7935 33 47.5943 33C47.3795 33 47.0045 32.7539 46.8443 32.4375C46.8365 32.4219 46.8209 32.4219 46.813 32.4062L46.6255 31.9375C46.6177 31.9062 46.606 31.875 46.5943 31.8438L43.438 23.625C43.231 23.1055 42.6451 22.8555 42.1255 23.0625C41.606 23.2695 41.356 23.8555 41.563 24.375L44.7193 32.4688C44.7232 32.5312 44.7349 32.5938 44.7505 32.6562L45.6568 35H29.3443L30.2505 32.6562C30.2779 32.5859 30.3013 32.5117 30.313 32.4375L33.438 24.375C33.6451 23.8555 33.3951 23.2695 32.8755 23.0625C32.356 22.8555 31.7701 23.1055 31.563 23.625L28.1568 32.4375C27.9341 32.9883 27.5904 33.1133 27.0005 32.9375C26.5552 32.8047 26.3482 32.3398 26.5005 32C26.5123 31.9883 26.5201 31.9805 26.5318 31.9688L31.1255 19.8438C31.7701 18.1484 33.5123 17 35.4068 17ZM8.50055 30H18.5005V35H8.50055V30ZM8.50055 37H10.5005V47C10.5005 47.5547 10.0552 48 9.50055 48C8.94586 48 8.50055 47.5547 8.50055 47V37ZM16.5005 37H18.5005V47C18.5005 47.5547 18.0552 48 17.5005 48C16.9459 48 16.5005 47.5547 16.5005 47V37ZM34.5005 37H36.5005V47C36.5005 47.5547 36.0552 48 35.5005 48C34.9459 48 34.5005 47.5547 34.5005 47V37ZM38.5005 37H40.5005V47C40.5005 47.5547 40.0552 48 39.5005 48C38.9459 48 38.5005 47.5547 38.5005 47V37Z" fill="#244E9C"/>
</svg>
