<svg width="31" height="46" viewBox="0 0 31 46" fill="none" xmlns="http://www.w3.org/2000/svg">
<path d="M15.5 0C7.22656 0 0.5 6.72656 0.5 15C0.5 20.0586 2.42969 23.0664 4.25 25.1562C5.16016 26.2031 6.03906 27.0469 6.625 27.8125C7.21094 28.5781 7.5 29.1953 7.5 30V40C7.5 41.6445 8.85547 43 10.5 43H11.6562C12.1016 44.7188 13.6484 46 15.5 46C17.3516 46 18.8984 44.7188 19.3438 43H20.5C22.1445 43 23.5 41.6445 23.5 40V30C23.5 28.8711 23.832 28.0898 24.4062 27.2812C24.9805 26.4727 25.8438 25.668 26.75 24.6875C28.5586 22.7227 30.5 19.9648 30.5 15C30.5 6.72656 23.7734 0 15.5 0ZM15.5 2C22.6914 2 28.5 7.80859 28.5 15C28.5 19.4688 26.9414 21.5117 25.25 23.3438C24.4062 24.2617 23.5195 25.0898 22.7812 26.125C22.043 27.1602 21.5 28.4375 21.5 30V35H9.5V30C9.5 28.6523 8.91406 27.5391 8.1875 26.5938C7.46094 25.6484 6.58984 24.8047 5.75 23.8438C4.07031 21.918 2.5 19.5742 2.5 15C2.5 7.80859 8.30859 2 15.5 2ZM11.4062 14.9688C11.3633 14.9766 11.3203 14.9883 11.2812 15C10.9062 15.0664 10.6055 15.3398 10.5 15.7031C10.3945 16.0703 10.5039 16.4609 10.7812 16.7188L14.5 20.4375V33H16.5V20.4375L20.2188 16.7188C20.6172 16.3203 20.6172 15.6797 20.2188 15.2812C19.8203 14.8828 19.1797 14.8828 18.7812 15.2812L15.5 18.5625L12.2188 15.2812C12.0117 15.0586 11.7109 14.9453 11.4062 14.9688ZM9.5 37H21.5V40C21.5 40.5547 21.0547 41 20.5 41H12.6875C12.5547 40.9727 12.4141 40.9727 12.2812 41H10.5C9.94531 41 9.5 40.5547 9.5 40V37ZM13.7812 43H17.2188C16.875 43.5977 16.2461 44 15.5 44C14.7539 44 14.125 43.5977 13.7812 43Z" fill="#244E9C"/>
</svg>
