<svg width="48" height="44" viewBox="0 0 48 44" fill="none" xmlns="http://www.w3.org/2000/svg">
<path d="M3.5 0C1.85547 0 0.5 1.35547 0.5 3V9.8125C0.492188 9.875 0.492188 9.9375 0.5 10V37C0.5 37.5508 0.949219 38 1.5 38H28.3438C29.8984 41.5195 33.4258 44 37.5 44C43 44 47.5 39.5 47.5 34C47.5 31.2188 46.3477 28.6914 44.5 26.875V10C44.5078 9.9375 44.5078 9.875 44.5 9.8125V3C44.5 1.35547 43.1445 0 41.5 0H3.5ZM3.5 2H14.5V9H2.5V3C2.5 2.43359 2.93359 2 3.5 2ZM16.5 2H28.5V9H16.5V2ZM30.5 2H41.5C42.0664 2 42.5 2.43359 42.5 3V9H30.5V2ZM2.5 11H14.5V18H2.5V11ZM16.5 11H28.5V18H16.5V11ZM30.5 11H42.5V18H30.5V11ZM2.5 20H14.5V27H2.5V20ZM16.5 20H28.5V27H16.5V20ZM30.5 20H42.5V25.375C41.0234 24.5156 39.3203 24 37.5 24C34.7812 24 32.3086 25.0977 30.5 26.875V20ZM37.5 26C41.8984 26 45.5 29.6016 45.5 34C45.5 38.3984 41.8984 42 37.5 42C33.1016 42 29.5 38.3984 29.5 34C29.5 29.6016 33.1016 26 37.5 26ZM36.5 28V33.5L32.9062 36.1875L34.0938 37.8125L38.5 34.5V28H36.5ZM2.5 29H14.5V36H2.5V29ZM16.5 29H28.875C28.0156 30.4766 27.5 32.1797 27.5 34C27.5 34.6875 27.5859 35.3516 27.7188 36H16.5V29Z" fill="#244E9C"/>
</svg>
