<svg width="51" height="46" viewBox="0 0 51 46" fill="none" xmlns="http://www.w3.org/2000/svg">
<path d="M37.5 0V2H47.0625L38.5312 10.5312C36.625 8.94922 34.1836 8 31.5 8C25.3984 8 20.5 12.8984 20.5 19C20.5 23.5 23.2891 27.3945 27.1875 29.0938C27.3867 28.3945 27.5 27.6992 27.5 27C24.5 25.5 22.5 22.5 22.5 19C22.5 14 26.5 10 31.5 10C36.5 10 40.5 14 40.5 19C40.5 24 36.5 28 31.5 28H31.4062C31.3047 28.6992 31.1953 29.3008 31.0938 30H31.5C37.6016 30 42.5 25.1016 42.5 19C42.5 16.3164 41.5508 13.875 39.9688 11.9688L48.5 3.4375V13H50.5V0H37.5ZM19.5 16C13.3984 16 8.5 20.8984 8.5 27C8.5 29.6836 9.44922 32.125 11.0312 34.0312L6.5 38.5625L2.21875 34.2812L0.78125 35.7188L5.0625 40L0.78125 44.2812L2.21875 45.7188L6.5 41.4375L10.7812 45.7188L12.2188 44.2812L7.9375 40L12.4688 35.4688C14.375 37.0508 16.8164 38 19.5 38C25.6016 38 30.5 33.1016 30.5 27C30.5 22.5 27.7109 18.6055 23.8125 16.9062C23.6133 17.5078 23.5 18.1992 23.5 19C26.5 20.5 28.5 23.5 28.5 27C28.5 32 24.5 36 19.5 36C14.5 36 10.5 32 10.5 27C10.5 22 14.5 18 19.5 18H19.5938C19.6953 17.3008 19.8047 16.6992 19.9062 16H19.5Z" fill="#244E9C"/>
</svg>
