<svg width="42" height="50" viewBox="0 0 42 50" fill="none" xmlns="http://www.w3.org/2000/svg">
<path d="M12 0V2H2.5C1.11719 2 0 3.11719 0 4.5V47.5C0 48.8828 1.11719 50 2.5 50H39.5C40.8828 50 42 48.8828 42 47.5V4.5C42 3.11719 40.8828 2 39.5 2H30V0H12ZM14 2H28V2.8125C28 2.84375 28 2.875 28 2.90625V3C27.9922 3.07422 27.9922 3.14453 28 3.21875V6.8125C28 6.84375 28 6.875 28 6.90625V7C27.9922 7.07422 27.9922 7.14453 28 7.21875V8H14V7.1875C14.0273 7.05469 14.0273 6.91406 14 6.78125V3.1875C14.0273 3.05469 14.0273 2.91406 14 2.78125V2ZM2.5 4H12V6H5V45H37V6H30V4H39.5C39.7148 4 40 4.28516 40 4.5V47.5C40 47.7148 39.7148 48 39.5 48H2.5C2.28516 48 2 47.7148 2 47.5V4.5C2 4.28516 2.28516 4 2.5 4ZM7 8H12V10H30V8H35V43H7V8ZM22 13V15H31V13H22ZM14 15V18H11V20H14V23H16V20H19V18H16V15H14ZM22 18V20H31V18H22ZM22 23V25H31V23H22ZM11 28V30H31V28H11ZM11 33V35H31V33H11ZM11 38V40H31V38H11Z" fill="#244E9C"/>
</svg>
