<svg width="39" height="48" viewBox="0 0 39 48" fill="none" xmlns="http://www.w3.org/2000/svg">
<path d="M0.5 0V4C0.5 5.64453 1.85547 7 3.5 7H5.5V13.7188C5.5 16.7266 6.99609 19.5508 9.5 21.2188L13.6875 24L9.5 26.7812C6.99609 28.4492 5.5 31.2734 5.5 34.2812V41H3.5C1.85547 41 0.5 42.3555 0.5 44V48H38.5V44C38.5 42.3555 37.1445 41 35.5 41H33.5V34.2812C33.5 31.2734 32.0039 28.4492 29.5 26.7812L25.3125 24L29.5 21.2188C32.0039 19.5508 33.5 16.7266 33.5 13.7188V7H35.5C37.1445 7 38.5 5.64453 38.5 4V0H0.5ZM2.5 2H36.5V4C36.5 4.56641 36.0664 5 35.5 5H3.5C2.93359 5 2.5 4.56641 2.5 4V2ZM7.5 7H31.5V13.7188C31.5 16.0586 30.3242 18.2344 28.375 19.5312L22.9375 23.1562L21.6875 24L22.9375 24.8438L28.375 28.4688C30.3242 29.7695 31.5 31.9414 31.5 34.2812V41H28.4375C27.7344 33.7461 19.5 31 19.5 31C19.5 31 11.2891 33.9023 10.5625 41H7.5V34.2812C7.5 31.9414 8.67578 29.7695 10.625 28.4688L16.0625 24.8438L17.3125 24L16.0625 23.1562L10.625 19.5312C8.67578 18.2344 7.5 16.0586 7.5 13.7188V7ZM11.5 14C11.5 19.0898 19.5 21 19.5 21C19.5 21 27.5 18.9844 27.5 14H11.5ZM3.5 43H35.5C36.0664 43 36.5 43.4336 36.5 44V46H2.5V44C2.5 43.4336 2.93359 43 3.5 43Z" fill="#244E9C"/>
</svg>
