<svg width="44" height="46" viewBox="0 0 44 46" fill="none" xmlns="http://www.w3.org/2000/svg">
<path d="M10.5 0C7.75 0 5.5 2.25 5.5 5C5.5 7.75 7.75 10 10.5 10C13.25 10 15.5 7.75 15.5 5C15.5 2.25 13.25 0 10.5 0ZM31.5 0C28.75 0 26.5 2.25 26.5 5C26.5 7.75 28.75 10 31.5 10C34.25 10 36.5 7.75 36.5 5C36.5 2.25 34.25 0 31.5 0ZM10.5 2C12.168 2 13.5 3.33203 13.5 5C13.5 6.66797 12.168 8 10.5 8C8.83203 8 7.5 6.66797 7.5 5C7.5 3.33203 8.83203 2 10.5 2ZM31.5 2C33.168 2 34.5 3.33203 34.5 5C34.5 6.66797 33.168 8 31.5 8C29.832 8 28.5 6.66797 28.5 5C28.5 3.33203 29.832 2 31.5 2ZM6 11C2.97656 11 0.5 13.4766 0.5 16.5V28.8125C0.492188 28.875 0.492188 28.9375 0.5 29C0.496094 29.0938 0.507813 29.1914 0.53125 29.2812C0.679688 30.793 1.95312 32 3.5 32C3.85156 32 4.18359 31.9258 4.5 31.8125V43.3438C4.5 44.8047 5.69531 46 7.15625 46H8.84375C9.48828 46 10.0352 45.6992 10.5 45.3125C10.9648 45.6992 11.5117 46 12.1562 46H13.8438C15.3047 46 16.5 44.8047 16.5 43.3438V36.8125C16.8164 36.9258 17.1484 37 17.5 37V43.5C17.5 44.8672 18.6328 46 20 46H23C24.3672 46 25.5 44.8672 25.5 43.5V37C25.8516 37 26.1836 36.9258 26.5 36.8125V43C26.5 44.6445 27.8555 46 29.5 46C30.2656 46 30.9688 45.6992 31.5 45.2188C32.0312 45.6992 32.7344 46 33.5 46C35.1445 46 36.5 44.6445 36.5 43V35H39.0938C39.75 35 40.3711 34.6602 40.7188 34.125C40.7188 34.1133 40.7188 34.1055 40.7188 34.0938C41.0664 33.5547 41.1445 32.9102 40.9688 32.3125C40.9688 32.3008 40.9688 32.293 40.9688 32.2812L40.5625 31C41.5742 31 42.4883 30.5078 42.9688 29.7188C43.4492 28.9297 43.5234 27.9453 43.2188 27C42.3008 24.1641 39.1875 14.6875 39.1875 14.6875C39 14.1094 38.6484 13.2539 37.9062 12.4688C37.1641 11.6836 35.9922 11 34.5 11H32.5625C32.543 11 32.5195 11 32.5 11H28.5C27.0039 11 25.8359 11.6836 25.0938 12.4688C24.7148 12.875 24.7344 13.5117 25.1406 13.8906C25.5469 14.2695 26.1836 14.25 26.5625 13.8438C27.0156 13.3594 27.5742 13 28.5 13H32.5C32.5312 13 32.5625 13 32.5938 13H34.5C35.4219 13 35.9844 13.3633 36.4375 13.8438C36.8906 14.3242 37.1992 14.957 37.3125 15.3125C37.3125 15.3125 40.3945 24.7656 41.3125 27.5938C41.4727 28.0859 41.4062 28.4531 41.2812 28.6562C41.1562 28.8594 40.9922 29 40.5625 29C40.1484 29 39.7891 28.7305 39.6562 28.375C39.6523 28.3672 39.6602 28.3516 39.6562 28.3438C39.6406 28.2461 39.6094 28.1523 39.5625 28.0625L36.7812 19.6875C36.6328 19.2227 36.1719 18.9297 35.6875 19C35.3906 19.0391 35.1289 19.2109 34.9727 19.4648C34.8125 19.7188 34.7773 20.0312 34.875 20.3125L37.6875 28.75C37.707 28.8359 37.7383 28.9219 37.7812 29L39.0625 32.9062V32.9375C39.0664 32.9688 39.0352 32.9844 39.0312 33H31.5625C31.543 33 31.5195 33 31.5 33H28.5V27C28.5 24.8008 26.6992 23 24.5 23H18.5C16.3008 23 14.5 24.8008 14.5 27V28.8438C14.5 28.875 14.5 28.9062 14.5 28.9375V43.3438C14.5 43.7266 14.2227 44 13.8438 44H12.1562C11.7734 44 11.5 43.7266 11.5 43.3438V30.6562C11.5039 30.3672 11.3789 30.0938 11.1641 29.9023C10.9492 29.7109 10.6602 29.6211 10.375 29.6562C9.87109 29.7188 9.49609 30.1484 9.5 30.6562V43.3438C9.5 43.7266 9.22266 44 8.84375 44H7.15625C6.77344 44 6.5 43.7266 6.5 43.3438V19C6.51172 18.7109 6.39453 18.4336 6.1875 18.2383C5.97656 18.0391 5.69141 17.9414 5.40625 17.9688C5.36328 17.9766 5.32031 17.9883 5.28125 18C4.81641 18.1055 4.48828 18.5234 4.5 19V28.8438C4.5 28.875 4.5 28.9062 4.5 28.9375V29C4.5 29.5664 4.06641 30 3.5 30C2.95703 30 2.53125 29.5977 2.5 29.0625C2.5 29.043 2.5 29.0195 2.5 29C2.50781 28.9375 2.50781 28.875 2.5 28.8125V16.5C2.5 14.5625 4.05859 13 6 13H15C15.75 13 16.4336 13.2266 17 13.625C17.2891 13.8672 17.6875 13.9258 18.0312 13.7773C18.3789 13.6289 18.6133 13.3008 18.6367 12.9258C18.6641 12.5508 18.4766 12.1953 18.1562 12C17.2656 11.375 16.168 11 15 11H6ZM21.5 14C19.3008 14 17.5 15.8008 17.5 18C17.5 20.1992 19.3008 22 21.5 22C23.6992 22 25.5 20.1992 25.5 18C25.5 15.8008 23.6992 14 21.5 14ZM21.5 16C22.6172 16 23.5 16.8828 23.5 18C23.5 19.1172 22.6172 20 21.5 20C20.3828 20 19.5 19.1172 19.5 18C19.5 16.8828 20.3828 16 21.5 16ZM18.5 25H24.5C25.6172 25 26.5 25.8828 26.5 27V33.8125C26.5 33.8438 26.5 33.875 26.5 33.9062V34C26.5 34.5664 26.0664 35 25.5 35H24.5C23.9492 35 23.5 35.4492 23.5 36V43.5C23.5 43.7852 23.2852 44 23 44H20C19.7148 44 19.5 43.7852 19.5 43.5V36C19.5 35.4492 19.0508 35 18.5 35H17.5C16.9336 35 16.5 34.5664 16.5 34V27C16.5 25.8828 17.3828 25 18.5 25ZM28.5 35H30.5V43C30.5 43.5664 30.0664 44 29.5 44C28.9336 44 28.5 43.5664 28.5 43V35ZM32.5 35H34.5V43C34.5 43.5664 34.0664 44 33.5 44C32.9336 44 32.5 43.5664 32.5 43V35Z" fill="#244E9C"/>
</svg>
