<svg width="47" height="46" viewBox="0 0 47 46" fill="none" xmlns="http://www.w3.org/2000/svg">
<path d="M23.5 0C10.8086 0 0.5 10.3086 0.5 23C0.5 35.6914 10.8086 46 23.5 46C36.1914 46 46.5 35.6914 46.5 23C46.5 10.3086 36.1914 0 23.5 0ZM23.5 2C35.1094 2 44.5 11.3906 44.5 23C44.5 34.6094 35.1094 44 23.5 44C11.8906 44 2.5 34.6094 2.5 23C2.5 11.3906 11.8906 2 23.5 2ZM23.3281 15C19.7344 15 18.707 17.5664 18.707 19.0195C18.707 20.9883 20.25 22.0156 20.9336 22.2695C20.0781 22.6133 18.1953 23.5547 18.1953 26.207C18.1953 28.4297 19.5664 31 23.5859 31C25.125 31 28.8047 30.2266 28.8047 26.207C28.8047 23.4688 26.9219 22.5273 25.9805 22.2695C26.5781 22.0156 28.1211 20.9883 28.1211 19.0195C28.1211 18.25 27.8633 15 23.3281 15ZM14 15.25C13.5703 17.6484 11.8984 18.1133 9.5 18.1992V19.7383L13.5 19.75V30.75H15.5V15.25H14ZM23.4141 16.7109C25.7227 16.7109 26.0664 18.3359 26.0664 19.1094C26.0664 19.9648 25.6406 21.6719 23.5 21.6719C20.8477 21.6719 20.6758 19.5352 20.6758 19.1094C20.6758 18.7656 20.8477 16.7109 23.4141 16.7109ZM34.5 19V22H31.5V24H34.5V27H36.5V24H39.5V22H36.5V19H34.5ZM23.5 23.2969C26.0664 23.2969 26.75 25.6094 26.75 26.2969C26.75 27.75 25.6406 29.375 23.5 29.375C21.875 29.375 20.1602 28.5195 20.1602 26.2969C20.1602 25.0117 21.0195 23.2969 23.5 23.2969Z" fill="#244E9C"/>
</svg>
