<svg width="33" height="32" viewBox="0 0 33 32" fill="none" xmlns="http://www.w3.org/2000/svg">
<path d="M16.4046 5.6665C12.1695 5.6665 8.23457 5.96825 5.98926 6.43734C5.98447 6.4386 5.9797 6.43991 5.97493 6.44124C4.28333 6.8203 2.69047 8.03199 2.35514 9.92952C2.3547 9.93213 2.35426 9.93473 2.35384 9.93734C2.09623 11.4667 1.83301 13.4603 1.83301 16.3332C1.83301 19.2006 2.09713 21.1414 2.42285 22.7511C2.76639 24.5927 4.32249 25.841 6.04004 26.2251C6.04826 26.2274 6.0565 26.2295 6.06478 26.2316C8.40815 26.6934 12.232 26.9998 16.4671 26.9998C20.7023 26.9998 24.5281 26.6934 26.8721 26.2316C26.8803 26.2295 26.8886 26.2274 26.8968 26.2251C28.5884 25.846 30.1813 24.6343 30.5166 22.7368C30.5175 22.732 30.5184 22.7273 30.5192 22.7225C30.7729 21.162 31.1015 19.1703 31.1663 16.2928C31.1664 16.2854 31.1664 16.278 31.1663 16.2707C31.1663 13.3916 30.8368 11.3856 30.5153 9.79671C30.1745 7.95122 28.6166 6.69949 26.8968 6.31494C26.8705 6.3091 26.844 6.30432 26.8174 6.30062C24.5306 5.97914 20.6404 5.6665 16.4046 5.6665ZM16.4046 7.6665C20.5115 7.6665 24.3171 7.97408 26.4775 8.27458C27.5393 8.51866 28.383 9.26027 28.5492 10.16C28.55 10.1656 28.5508 10.1713 28.5518 10.1769C28.862 11.7079 29.1638 13.5283 29.165 16.2563C29.1027 18.9932 28.8003 20.8296 28.5465 22.3905C28.3733 23.3628 27.561 24.0228 26.4684 24.2707C24.3698 24.6824 20.5944 24.9998 16.4671 24.9998C12.3392 24.9998 8.56476 24.6812 6.46712 24.2694C5.40135 24.0273 4.5543 23.2835 4.3877 22.3813C4.38644 22.3757 4.38514 22.3701 4.38379 22.3644C4.07703 20.8506 3.83301 19.0856 3.83301 16.3332C3.83301 13.5856 4.07662 11.7478 4.32389 10.2785C4.49618 9.30356 5.31064 8.64197 6.40592 8.39437C8.34918 7.98932 12.273 7.6665 16.4046 7.6665ZM14.1403 10.6821C12.9453 10.7209 11.833 11.6834 11.833 12.9907V19.0103C11.833 20.7533 13.8106 21.8837 15.3252 21.0285C15.3252 21.028 15.3252 21.0276 15.3252 21.0272L20.652 18.0181C22.1775 17.1562 22.1775 14.8435 20.652 13.9816L15.3252 10.9725C14.9466 10.7587 14.5386 10.6692 14.1403 10.6821ZM14.1481 12.6535C14.2082 12.6567 14.2738 12.6755 14.3408 12.7134L19.6676 15.7238C19.9381 15.8766 19.9381 16.1244 19.6676 16.2772L14.3408 19.2863C14.0727 19.4377 13.833 19.2965 13.833 19.0103V12.9907C13.833 12.8476 13.8931 12.7409 13.9867 12.6886C14.0334 12.6625 14.088 12.6502 14.1481 12.6535Z" fill="#244E9C"/>
</svg>
