<svg width="32" height="32" viewBox="0 0 32 32" fill="none" xmlns="http://www.w3.org/2000/svg">
<path d="M15.9046 5.6665C11.6695 5.6665 7.73457 5.96825 5.48926 6.43734C5.48447 6.4386 5.4797 6.43991 5.47493 6.44124C3.78333 6.8203 2.19047 8.03199 1.85514 9.92952C1.8547 9.93213 1.85426 9.93473 1.85384 9.93734C1.59623 11.4667 1.33301 13.4603 1.33301 16.3332C1.33301 19.2006 1.59713 21.1414 1.92285 22.7511C2.26639 24.5927 3.82249 25.841 5.54004 26.2251C5.54826 26.2274 5.5565 26.2295 5.56478 26.2316C7.90815 26.6934 11.732 26.9998 15.9671 26.9998C20.2023 26.9998 24.0281 26.6934 26.3721 26.2316C26.3803 26.2295 26.3886 26.2274 26.3968 26.2251C28.0884 25.846 29.6813 24.6343 30.0166 22.7368C30.0175 22.732 30.0184 22.7273 30.0192 22.7225C30.2729 21.162 30.6015 19.1703 30.6663 16.2928C30.6664 16.2854 30.6664 16.278 30.6663 16.2707C30.6663 13.3916 30.3368 11.3856 30.0153 9.79671C29.6745 7.95122 28.1166 6.69949 26.3968 6.31494C26.3705 6.3091 26.344 6.30432 26.3174 6.30062C24.0306 5.97914 20.1404 5.6665 15.9046 5.6665ZM15.9046 7.6665C20.0115 7.6665 23.8171 7.97408 25.9775 8.27458C27.0393 8.51866 27.883 9.26027 28.0492 10.16C28.05 10.1656 28.0508 10.1713 28.0518 10.1769C28.362 11.7079 28.6638 13.5283 28.665 16.2563C28.6027 18.9932 28.3003 20.8296 28.0465 22.3905C27.8733 23.3628 27.061 24.0228 25.9684 24.2707C23.8698 24.6824 20.0944 24.9998 15.9671 24.9998C11.8392 24.9998 8.06476 24.6812 5.96712 24.2694C4.90135 24.0273 4.0543 23.2835 3.8877 22.3813C3.88644 22.3757 3.88514 22.3701 3.88379 22.3644C3.57703 20.8506 3.33301 19.0856 3.33301 16.3332C3.33301 13.5856 3.57662 11.7478 3.82389 10.2785C3.99618 9.30356 4.81064 8.64197 5.90592 8.39437C7.84918 7.98932 11.773 7.6665 15.9046 7.6665ZM13.6403 10.6821C12.4453 10.7209 11.333 11.6834 11.333 12.9907V19.0103C11.333 20.7533 13.3106 21.8837 14.8252 21.0285C14.8252 21.028 14.8252 21.0276 14.8252 21.0272L20.152 18.0181C21.6775 17.1562 21.6775 14.8435 20.152 13.9816L14.8252 10.9725C14.4466 10.7587 14.0386 10.6692 13.6403 10.6821ZM13.6481 12.6535C13.7082 12.6567 13.7738 12.6755 13.8408 12.7134L19.1676 15.7238C19.4381 15.8766 19.4381 16.1244 19.1676 16.2772L13.8408 19.2863C13.5727 19.4377 13.333 19.2965 13.333 19.0103V12.9907C13.333 12.8476 13.3931 12.7409 13.4867 12.6886C13.5334 12.6625 13.588 12.6502 13.6481 12.6535Z" fill="white"/>
</svg>
