<svg width="33" height="32" viewBox="0 0 33 32" fill="none" xmlns="http://www.w3.org/2000/svg">
<path d="M13.833 4.66093V10.5336L10.301 5.69759C10.995 5.24959 12.139 4.74359 13.833 4.66093ZM14.319 2.64893C10.665 2.64893 8.68167 4.26493 7.99367 5.04026C7.78767 5.27226 7.76967 5.61359 7.94901 5.86759L14.0817 14.2649C14.283 14.5409 14.5703 14.6643 14.8543 14.6643C15.349 14.6643 15.833 14.2889 15.833 13.6936V3.34559C15.833 3.00093 15.569 2.70493 15.225 2.68093C14.9123 2.65959 14.6103 2.64893 14.319 2.64893ZM7.97234 16.9556L11.0443 18.1349L8.04834 19.5816C7.92767 19.1456 7.83301 18.6036 7.83301 18.0003C7.83301 17.5689 7.89367 17.2229 7.97234 16.9556ZM7.42634 14.6656C7.18167 14.6656 6.94367 14.7703 6.77901 14.9656C6.39834 15.4189 5.83301 16.4223 5.83301 18.0003C5.83301 19.6123 6.33567 20.9443 6.72101 21.5816C6.88101 21.8463 7.16167 21.9963 7.45234 21.9963C7.57234 21.9963 7.69434 21.9709 7.80967 21.9176L13.9677 18.9443C14.7277 18.5403 14.6883 17.4376 13.901 17.0889L7.73634 14.7229C7.63501 14.6843 7.53034 14.6656 7.42634 14.6656ZM22.555 12.5303C23.205 13.1669 23.7137 14.0743 24.0763 15.0136L20.7723 15.2176L22.555 12.5303ZM22.1937 9.99959C21.961 9.99959 21.7363 10.1196 21.6123 10.3316L17.991 15.7909C17.561 16.4649 18.051 17.3383 18.8363 17.3383C18.8537 17.3383 18.871 17.3376 18.8883 17.3369L25.933 16.9023C26.3197 16.8469 26.5757 16.4763 26.4897 16.0956C26.173 14.6956 25.1377 11.3003 22.477 10.0623C22.3863 10.0203 22.2897 9.99959 22.1937 9.99959ZM14.253 23.7636L14.4203 27.1296C13.2837 26.8716 12.425 26.4343 11.8343 26.0429L14.253 23.7636ZM15.047 20.6709C14.7857 20.6709 14.519 20.7649 14.2983 20.9729L9.38967 25.5996C9.12301 25.8396 9.08967 26.2509 9.32434 26.5229C10.081 27.3983 12.2443 29.1216 15.777 29.3356C15.791 29.3363 15.8057 29.3369 15.8197 29.3369C16.197 29.3369 16.5097 29.0316 16.4983 28.6489L16.1537 21.7203C16.1223 21.0843 15.5957 20.6709 15.047 20.6709ZM21.3563 21.6943L24.7417 22.3536C24.3397 23.1656 23.7323 23.9356 22.9363 24.6409L21.3563 21.6943ZM19.5443 19.3229C18.797 19.3229 18.261 20.1323 18.631 20.8429L21.9237 26.9829C22.0477 27.1996 22.2737 27.3209 22.5043 27.3209C22.629 27.3209 22.755 27.2856 22.867 27.2103C23.9397 26.4916 26.4663 24.6263 27.1517 21.4943C27.229 21.1403 27.0243 20.7843 26.6737 20.6909L19.7737 19.3476C19.6957 19.3316 19.619 19.3229 19.5443 19.3229Z" fill="#244E9C"/>
</svg>
