<svg width="32" height="32" viewBox="0 0 32 32" fill="none" xmlns="http://www.w3.org/2000/svg">
<path d="M13.333 4.66093V10.5336L9.80101 5.69759C10.495 5.24959 11.639 4.74359 13.333 4.66093ZM13.819 2.64893C10.165 2.64893 8.18167 4.26493 7.49367 5.04026C7.28767 5.27226 7.26967 5.61359 7.44901 5.86759L13.5817 14.2649C13.783 14.5409 14.0703 14.6643 14.3543 14.6643C14.849 14.6643 15.333 14.2889 15.333 13.6936V3.34559C15.333 3.00093 15.069 2.70493 14.725 2.68093C14.4123 2.65959 14.1103 2.64893 13.819 2.64893ZM7.47234 16.9556L10.5443 18.1349L7.54834 19.5816C7.42767 19.1456 7.33301 18.6036 7.33301 18.0003C7.33301 17.5689 7.39367 17.2229 7.47234 16.9556ZM6.92634 14.6656C6.68167 14.6656 6.44367 14.7703 6.27901 14.9656C5.89834 15.4189 5.33301 16.4223 5.33301 18.0003C5.33301 19.6123 5.83567 20.9443 6.22101 21.5816C6.38101 21.8463 6.66167 21.9963 6.95234 21.9963C7.07234 21.9963 7.19434 21.9709 7.30967 21.9176L13.4677 18.9443C14.2277 18.5403 14.1883 17.4376 13.401 17.0889L7.23634 14.7229C7.13501 14.6843 7.03034 14.6656 6.92634 14.6656ZM22.055 12.5303C22.705 13.1669 23.2137 14.0743 23.5763 15.0136L20.2723 15.2176L22.055 12.5303ZM21.6937 9.99959C21.461 9.99959 21.2363 10.1196 21.1123 10.3316L17.491 15.7909C17.061 16.4649 17.551 17.3383 18.3363 17.3383C18.3537 17.3383 18.371 17.3376 18.3883 17.3369L25.433 16.9023C25.8197 16.8469 26.0757 16.4763 25.9897 16.0956C25.673 14.6956 24.6377 11.3003 21.977 10.0623C21.8863 10.0203 21.7897 9.99959 21.6937 9.99959ZM13.753 23.7636L13.9203 27.1296C12.7837 26.8716 11.925 26.4343 11.3343 26.0429L13.753 23.7636ZM14.547 20.6709C14.2857 20.6709 14.019 20.7649 13.7983 20.9729L8.88967 25.5996C8.62301 25.8396 8.58967 26.2509 8.82434 26.5229C9.58101 27.3983 11.7443 29.1216 15.277 29.3356C15.291 29.3363 15.3057 29.3369 15.3197 29.3369C15.697 29.3369 16.0097 29.0316 15.9983 28.6489L15.6537 21.7203C15.6223 21.0843 15.0957 20.6709 14.547 20.6709ZM20.8563 21.6943L24.2417 22.3536C23.8397 23.1656 23.2323 23.9356 22.4363 24.6409L20.8563 21.6943ZM19.0443 19.3229C18.297 19.3229 17.761 20.1323 18.131 20.8429L21.4237 26.9829C21.5477 27.1996 21.7737 27.3209 22.0043 27.3209C22.129 27.3209 22.255 27.2856 22.367 27.2103C23.4397 26.4916 25.9663 24.6263 26.6517 21.4943C26.729 21.1403 26.5243 20.7843 26.1737 20.6909L19.2737 19.3476C19.1957 19.3316 19.119 19.3229 19.0443 19.3229Z" fill="white"/>
</svg>
